<svg xmlns="http://www.w3.org/2000/svg" viewBox="0 0 202 208" fill="currentColor">
  <path d="M 131.431 164.48 C 132.749 163.626 134.762 162.608 136.235 161.708 C 140.218 159.288 143.937 156.455 147.325 153.256 C 161.039 140.34 169.142 122.564 169.898 103.742 C 170.103 98.838 169.623 92.793 169.045 87.912 C 167.236 73.349 162.888 59.216 156.202 46.152 C 154.079 41.917 151.429 37.409 148.991 33.322 C 146.291 28.792 142.61 25.597 142.969 19.752 C 143.232 15.512 145.066 12.618 148.632 10.259 C 152.735 7.766 157.034 5.647 161.191 3.227 C 164.093 1.537 166.304 -0.12 169.778 0.026 C 172.773 1.778 177.485 10.887 179.243 14.272 C 181.005 17.661 174.855 20.712 172.247 21.498 C 174.467 23.507 176.364 26.625 178.067 29.13 C 185.907 40.661 192.128 53.146 196.169 66.505 C 196.876 68.837 197.837 71.753 198.266 74.12 C 203.214 92.098 203.302 111.067 198.525 129.09 C 197.194 133.898 196.13 137.678 194.318 142.342 C 188.259 157.852 178.536 171.667 165.981 182.606 C 164.463 183.919 158.714 188.93 157.157 189.542 C 155.825 190.77 154.42 191.583 153.007 192.609 C 147.845 196.358 142.915 198.404 136.953 200.641 C 136.248 200.8 134.271 201.573 133.487 201.852 C 130.689 202.854 128.034 203.847 125.151 204.562 C 111.378 208.09 98.417 208.662 84.389 206.09 C 75.89 204.529 70.462 202.616 62.39 199.521 C 56.463 197.186 50.683 194.168 45.748 190.094 C 43.443 188.53 38.564 184.707 36.955 183.332 C 23.279 171.731 12.911 156.723 6.903 139.827 C 5.829 136.878 4.567 133.51 3.904 130.459 C 3.69 130.003 2.673 125.709 2.496 124.932 C -0.809 110.425 -0.594 98.067 1.75 83.461 C 2.701 78.358 4.498 69.092 6.545 64.432 C 10.583 51.801 16.995 39.107 24.561 28.271 C 25.799 26.497 28.103 22.954 29.715 21.688 L 29.525 21.621 C 26.449 20.536 21.152 17.686 23.154 13.668 C 25.171 9.548 27.822 5.379 30.449 1.636 C 32.077 -0.685 34.643 -0.202 36.822 1.029 C 43.138 4.597 50.091 7.817 55.858 12.198 C 56.89 12.981 58.08 15.116 58.549 16.322 C 60.947 23.517 56.544 27.765 53.116 33.318 C 50.385 37.827 47.819 42.434 45.424 47.131 C 38.271 61.214 33.93 76.556 32.646 92.3 C 31.486 105.035 32.279 113.272 36.53 125.444 C 41.917 140.486 52.26 153.247 65.859 161.634 C 67.841 162.874 70.234 164.31 72.338 165.338 C 77.656 167.94 87.697 171.218 93.563 171.564 C 107.791 172.795 118.506 170.645 131.431 164.48 Z" fill="currentColor" fill-rule="nonzero"></path>
  <circle cx="101" cy="118" r="34" fill="currentColor"></circle>
</svg>