<svg width="149" height="149" viewBox="0 0 149 149" fill="none" xmlns="http://www.w3.org/2000/svg">
<path d="M27.7104 0.00050784C29.0502 -0.0181754 30.2843 0.481628 31.2158 1.00795C35.3708 3.35577 40.5153 5.76372 44.6793 8.92645C45.3856 9.46314 45.9509 10.271 46.316 10.8603C46.7152 11.5049 47.0701 12.2092 47.2896 12.7752L47.3101 12.8274L47.3283 12.8796C48.3736 16.0152 47.9186 18.6023 46.8642 20.8781C46.3627 21.9621 45.7314 22.9661 45.1217 23.8838C44.4825 24.8469 43.9047 25.6643 43.336 26.5862C41.4741 29.6615 39.7248 32.8045 38.0914 36.0076C33.2632 45.5139 30.3332 55.8706 29.4665 66.4975L29.4654 66.5075L29.4642 66.5186C28.6863 75.0563 29.2083 80.4409 32.0348 88.5402L32.3783 89.4688C35.9099 98.7075 42.293 106.582 50.5995 111.951L51.4355 112.48L51.4491 112.488C52.64 113.234 53.998 114.05 55.2196 114.683L55.7348 114.943L56.4139 115.262C58.0813 116.021 60.3174 116.857 62.6184 117.556C65.1071 118.313 67.5104 118.859 69.2563 119.01L69.5964 119.036L69.6271 119.037L69.6589 119.041C79.0607 119.854 86.0717 118.462 94.6466 114.388C95.1481 114.071 95.7293 113.746 96.256 113.453C96.8679 113.113 97.4207 112.808 97.8813 112.527L97.887 112.523C100.513 110.928 102.967 109.059 105.202 106.95L105.203 106.948C114.284 98.3949 119.649 86.6233 120.149 74.1594V74.1561C120.284 70.9347 119.967 66.8802 119.572 63.5351C118.348 53.7002 115.411 44.1543 110.895 35.3322L110.888 35.3144C109.457 32.4593 107.657 29.3972 105.964 26.5585C105.545 25.8562 105.083 25.1969 104.576 24.4713C104.085 23.7699 103.541 22.9927 103.064 22.1676C102.073 20.4546 101.309 18.4407 101.47 15.8387C101.58 14.0604 102.031 12.4549 102.9 11.0191C103.764 9.59163 104.968 8.45233 106.413 7.49582L106.449 7.47139L106.487 7.44806C107.962 6.55214 109.465 5.72952 110.927 4.93555C112.404 4.13419 113.833 3.36647 115.238 2.54856C116.933 1.56145 119.063 -0.0132465 122.135 0.0127261L122.437 0.0205012L123.001 0.0438269L123.489 0.329288C124.412 0.869475 125.23 1.79827 125.872 2.62964C126.562 3.52416 127.254 4.58155 127.891 5.62977C129.164 7.72877 130.319 9.96082 130.925 11.128C131.603 12.4324 131.492 13.7638 130.972 14.8556C130.5 15.8437 129.718 16.6055 129.018 17.1537C128.623 17.462 128.197 17.742 127.767 17.9968C128.348 18.778 128.879 19.5696 129.346 20.2716C136.198 27.9542 141.505 37.0423 144.87 47.0183C150.176 62.7478 150.375 79.8296 145.436 95.6856C140.499 111.542 130.691 125.315 117.495 134.924C104.299 144.536 88.4272 149.463 72.275 148.966C56.1238 148.469 40.5653 142.572 27.9492 132.167C15.3332 121.761 6.34084 107.41 2.33036 91.2782C-1.67956 75.1463 -0.49143 58.1071 5.7164 42.732C9.3015 33.8506 14.4517 25.8038 20.8461 18.9631C21.0418 18.6851 21.2454 18.4003 21.449 18.1245C21.4569 18.113 21.466 18.1006 21.474 18.089C20.944 17.7598 20.423 17.381 19.9567 16.9494C19.2754 16.3188 18.5861 15.4622 18.2449 14.3636C17.8843 13.1984 17.9787 11.9529 18.5713 10.7547C20.0431 7.7494 21.9562 4.74887 23.8125 2.10315C24.81 0.681785 26.2283 0.0213502 27.7104 0.00050784Z" fill="#EDECEB"></path>
<path d="M95.7361 115.254C96.6506 114.662 98.0473 113.955 99.0687 113.331C101.833 111.652 104.412 109.686 106.763 107.467C116.278 98.5061 121.9 86.1731 122.424 73.1141C122.566 69.7121 122.233 65.5178 121.833 62.1316C120.577 52.0277 117.561 42.2221 112.922 33.159C111.449 30.2201 109.61 27.0928 107.919 24.2573C106.046 21.1145 103.492 18.8977 103.741 14.8424C103.923 11.9006 105.196 9.89325 107.67 8.25604C110.517 6.52685 113.499 5.05673 116.383 3.3775C118.397 2.20475 119.931 1.05529 122.341 1.15653C124.419 2.37204 127.688 8.69214 128.907 11.0407C130.13 13.3917 125.864 15.5089 124.054 16.0536C125.594 17.4476 126.91 19.6112 128.092 21.3488C133.531 29.3492 137.847 38.0112 140.651 47.2794C141.141 48.8972 141.808 50.9203 142.106 52.5631C145.538 65.0358 145.6 78.1966 142.285 90.7008C141.362 94.0364 140.624 96.659 139.367 99.8946C135.163 110.656 128.417 120.241 119.707 127.829C118.654 128.741 114.665 132.218 113.584 132.642C112.661 133.494 111.686 134.058 110.705 134.77C107.124 137.371 103.704 138.791 99.5669 140.342C99.0778 140.452 97.7061 140.989 97.1624 141.183C95.2209 141.878 93.3794 142.567 91.3787 143.063C81.8234 145.51 72.8311 145.907 63.0983 144.123C57.202 143.04 53.4361 141.713 47.8355 139.565C43.7238 137.946 39.7133 135.852 36.2897 133.025C34.6905 131.94 31.3056 129.288 30.1887 128.333C20.7005 120.285 13.5076 109.872 9.33898 98.1496C8.59398 96.1042 7.71818 93.767 7.25867 91.6505C7.10967 91.3343 6.40447 88.3551 6.28164 87.8162C3.98863 77.7513 4.13763 69.1768 5.76411 59.0436C6.42381 55.5028 7.67041 49.0746 9.09102 45.8416C11.8924 37.078 16.3408 28.2711 21.5899 20.7526C22.4487 19.5219 24.0479 17.0639 25.1659 16.1854L25.034 16.1395C22.9002 15.3865 19.2253 13.4093 20.614 10.6217C22.0131 7.76332 23.8522 4.87045 25.6755 2.27361C26.8049 0.66362 28.585 0.998307 30.0966 1.85228C34.479 4.32776 39.3027 6.56183 43.3041 9.60142C44.0195 10.1451 44.8453 11.6262 45.1706 12.4625C46.8346 17.4548 43.7795 20.4016 41.4012 24.2545C39.5063 27.3828 37.7263 30.5794 36.0645 33.8379C31.102 43.6085 28.0902 54.2529 27.1996 65.1756C26.3943 74.0114 26.9448 79.7264 29.8941 88.1708C33.6316 98.6072 40.8075 107.46 50.2423 113.279C51.6174 114.14 53.278 115.136 54.7373 115.849C58.427 117.654 65.3936 119.929 69.4632 120.169C79.3348 121.023 86.7688 119.531 95.7361 115.254Z" fill="#272F42"></path>
<mask id="mask0_248_2604" style="mask-type:luminance" maskUnits="userSpaceOnUse" x="4" y="1" width="141" height="145">
<path d="M95.7361 115.254C96.6506 114.662 98.0473 113.955 99.0687 113.331C101.833 111.652 104.412 109.686 106.763 107.467C116.278 98.5061 121.9 86.1731 122.424 73.1141C122.566 69.7121 122.233 65.5178 121.833 62.1316C120.577 52.0277 117.561 42.2221 112.922 33.159C111.449 30.2201 109.61 27.0928 107.919 24.2573C106.046 21.1145 103.492 18.8977 103.741 14.8424C103.923 11.9006 105.196 9.89325 107.67 8.25604C110.517 6.52685 113.499 5.05673 116.383 3.3775C118.397 2.20475 119.931 1.05529 122.341 1.15653C124.419 2.37204 127.688 8.69214 128.907 11.0407C130.13 13.3917 125.864 15.5089 124.054 16.0536C125.594 17.4476 126.91 19.6112 128.092 21.3488C133.531 29.3492 137.847 38.0112 140.651 47.2794C141.141 48.8972 141.808 50.9203 142.106 52.5631C145.538 65.0358 145.6 78.1966 142.285 90.7008C141.362 94.0364 140.624 96.659 139.367 99.8946C135.163 110.656 128.417 120.241 119.707 127.829C118.654 128.741 114.665 132.218 113.584 132.642C112.661 133.494 111.686 134.058 110.705 134.77C107.124 137.371 103.704 138.791 99.5669 140.342C99.0778 140.452 97.7061 140.989 97.1624 141.183C95.2209 141.878 93.3794 142.567 91.3787 143.063C81.8234 145.51 72.8311 145.907 63.0983 144.123C57.202 143.04 53.4361 141.713 47.8355 139.565C43.7238 137.946 39.7133 135.852 36.2897 133.025C34.6905 131.94 31.3056 129.288 30.1887 128.333C20.7005 120.285 13.5076 109.872 9.33898 98.1496C8.59398 96.1042 7.71818 93.767 7.25867 91.6505C7.10967 91.3343 6.40447 88.3551 6.28164 87.8162C3.98863 77.7513 4.13763 69.1768 5.76411 59.0436C6.42381 55.5028 7.67041 49.0746 9.09102 45.8416C11.8924 37.078 16.3408 28.2711 21.5899 20.7526C22.4487 19.5219 24.0479 17.0639 25.1659 16.1854L25.034 16.1395C22.9002 15.3865 19.2253 13.4093 20.614 10.6217C22.0131 7.76332 23.8522 4.87045 25.6755 2.27361C26.8049 0.66362 28.585 0.998307 30.0966 1.85228C34.479 4.32776 39.3027 6.56183 43.3041 9.60142C44.0195 10.1451 44.8453 11.6262 45.1706 12.4625C46.8346 17.4548 43.7795 20.4016 41.4012 24.2545C39.5063 27.3828 37.7263 30.5794 36.0645 33.8379C31.102 43.6085 28.0902 54.2529 27.1996 65.1756C26.3943 74.0114 26.9448 79.7264 29.8941 88.1708C33.6316 98.6072 40.8075 107.46 50.2423 113.279C51.6174 114.14 53.278 115.136 54.7373 115.849C58.427 117.654 65.3936 119.929 69.4632 120.169C79.3348 121.023 86.7688 119.531 95.7361 115.254Z" fill="white"></path>
</mask>
<g mask="url(#mask0_248_2604)">
<path d="M95.3887 114.717C95.6208 115.075 95.8528 115.432 96.0848 115.791C97.1187 115.14 98.2812 114.576 99.4151 113.896C102.225 112.212 104.86 110.229 107.259 107.99C112.664 102.964 116.95 96.7321 119.715 89.8699C121.861 84.5611 123.098 78.8819 123.355 73.1511C123.509 69.391 123.218 65.6955 122.814 62.0151C121.599 51.8102 118.579 41.8203 113.928 32.6436C112.392 29.5532 110.661 26.593 108.928 23.6554C106.978 20.475 104.611 18.017 104.958 14.9169C105.067 12.5091 106.288 10.6043 108.361 9.29825L108.319 9.32438C111.109 7.64398 114.097 6.18474 117.032 4.49095C118.981 3.33648 120.533 2.32925 122.287 2.46794L121.679 2.28946C123.931 4.19957 125.926 8.29174 127.706 11.6651C127.798 11.8932 127.807 11.9098 127.65 12.2296C127.485 12.5251 127.118 12.8942 126.688 13.2129C125.826 13.8532 124.684 14.4112 123.655 14.7299L121.315 15.4274L123.127 17.0777C124.534 18.3781 125.669 20.2628 126.932 22.1378C132.258 30.0191 136.51 38.6277 139.227 47.7102C139.757 49.4789 140.326 51.2029 140.626 52.8307L140.656 52.9617C143.981 65.1152 144.009 78.1384 140.746 90.2922L140.751 90.2754C139.891 93.3792 139.02 96.3894 137.866 99.3109C133.766 109.774 127.1 119.214 118.614 126.576C116.751 128.178 114.402 130.222 112.975 131.085L112.452 131.412C111.735 132.083 110.785 132.65 109.721 133.414C106.527 135.765 102.86 137.325 98.975 138.762L99.1956 138.696C98.0411 139.012 97.3815 139.316 96.5967 139.591C94.6688 140.281 92.8227 140.965 90.9722 141.418L90.9585 141.421C81.9503 143.778 72.5417 144.177 63.4072 142.445C60.144 141.853 56.9832 141.037 53.8531 139.958C52.0525 139.344 50.2554 138.665 48.447 137.972L48.4618 137.978C44.449 136.397 40.6205 134.388 37.3743 131.712L37.247 131.617C35.2701 130.232 33.1728 128.596 31.2949 127.041C22.0683 119.241 14.9618 108.971 10.9138 97.5892L10.9093 97.5774C10.1279 95.4363 9.3385 93.3423 8.88468 91.2967L8.76411 90.9413C8.84373 91.1323 8.78004 90.9775 8.77207 90.939C8.75501 90.8803 8.7334 90.8061 8.71406 90.7358C8.67425 90.5907 8.63331 90.4376 8.59236 90.2831C8.51274 89.9742 8.43312 89.659 8.35464 89.3433C8.19882 88.7136 8.04186 88.0645 7.89854 87.4471C5.69426 78.2328 5.79207 68.7093 7.35942 59.2991L7.35259 59.3391C8.19314 54.9396 9.0041 50.3436 10.5464 46.4803L10.6056 46.3249C13.4081 37.5652 17.6006 29.2074 22.8417 21.6255C23.9325 20.0464 25.0722 18.2724 26.0993 17.3731L28.2751 15.6715L25.6625 14.7576C25.6182 14.7425 25.5738 14.7274 25.5294 14.7121C23.3126 13.9872 21.1243 12.2276 21.9478 11.2851C23.3286 8.45471 25.0415 5.74418 26.8727 3.11296C27.1696 2.71288 27.3561 2.61467 27.7712 2.59303C28.1898 2.5814 28.8063 2.78304 29.3852 3.11209C33.9075 5.64471 38.5345 7.76278 42.4585 10.7158C42.8464 11.0127 43.5584 12.1608 43.8769 12.965L43.8541 12.9013C45.3328 16.5441 42.6974 19.7655 40.2577 23.5478C38.3514 26.72 36.5668 29.952 34.9028 33.2445C29.9096 43.1538 26.8784 54.0348 26.0288 65.0796C25.1757 72.8812 26.072 81.1527 28.8836 88.5233C32.6962 99.0936 40.1985 108.249 49.7664 114.052C51.2438 114.963 52.7441 115.858 54.3501 116.64C56.5692 117.695 58.8383 118.506 61.1449 119.226C63.8235 120.032 66.5203 120.763 69.4161 120.965L69.3945 120.963C78.5063 121.886 87.8989 119.953 96.012 115.832C95.8289 115.446 95.6447 115.062 95.4615 114.676C87.403 118.631 78.4323 120.362 69.5321 119.375L69.5105 119.374C66.9025 119.168 64.2353 118.433 61.6511 117.619C59.4184 116.897 57.1947 116.071 55.1247 115.058C53.6335 114.313 52.1708 113.422 50.7252 112.509C41.5589 106.818 34.4535 97.9513 30.9025 87.8094C28.2399 80.5564 27.488 72.9667 28.3695 65.2818C29.2885 54.5366 32.3175 43.9979 37.2288 34.4284C38.8871 31.2066 40.6637 28.044 42.5518 24.9507C43.6232 23.2042 45.0234 21.5126 46.0561 19.33C47.1401 17.1743 47.3175 14.3118 46.4884 12.0231L46.4656 11.9594C45.8878 10.6672 45.5034 9.7034 44.1521 8.48618C39.9039 5.25757 35.1758 3.08041 30.8093 0.591625C29.9596 0.119454 28.986 -0.309169 27.7462 -0.316318C26.4985 -0.364884 25.0984 0.459896 24.4796 1.43343C22.5756 4.13663 20.7762 6.93841 19.276 9.96652C18.8392 10.7914 18.655 12.0022 18.9973 13.0156C19.3226 14.0297 19.9414 14.7456 20.5499 15.3044C21.7976 16.4069 23.1295 17.0473 24.5319 17.5636C24.5831 17.5815 24.6263 17.5968 24.6707 17.6123L24.2328 14.9968C22.3481 16.6795 21.4791 18.3053 20.3395 19.8788C14.8833 27.6947 10.5305 36.2642 7.57893 45.3574L7.63808 45.202C5.80118 49.791 5.07096 54.2454 4.1781 58.7474L4.17127 58.7873C2.52431 68.4016 2.37646 78.5638 4.66491 88.1841C4.81732 88.8474 4.96973 89.4864 5.12897 90.1379C5.20859 90.4627 5.28935 90.7879 5.37465 91.1182C5.41787 91.2839 5.46109 91.45 5.50886 91.623C5.53275 91.7076 5.55891 91.8002 5.58621 91.8933C5.62715 92.0154 5.61009 92.0231 5.75454 92.3589L5.63398 92.0035C6.16628 94.4075 6.99886 96.5861 7.76888 98.721L7.76433 98.7091C11.9818 110.653 19.4204 121.44 29.0906 129.63C31.1539 131.338 33.1125 132.875 35.3339 134.434L35.2053 134.338C38.8234 137.323 42.9715 139.479 47.2118 141.153L47.2254 141.158C49.0464 141.855 50.8776 142.548 52.752 143.189C56.0084 144.312 59.4024 145.187 62.7919 145.799C72.3609 147.619 82.4087 147.181 91.7991 144.702L91.7854 144.706C93.8771 144.188 95.8414 143.451 97.7329 142.772C98.5427 142.478 99.4561 142.119 99.9395 141.987L100.159 141.921C104.073 140.469 108.161 138.739 111.691 136.126C112.56 135.488 113.68 134.831 114.719 133.871L114.196 134.197C117.251 132.43 118.699 130.823 120.795 129.087C129.669 121.35 136.618 111.443 140.868 100.48C142.07 97.4063 142.975 94.2243 143.82 91.1254L143.825 91.1086C147.184 78.3998 147.087 64.8091 143.557 52.1634L143.586 52.2945C143.209 50.327 142.602 48.5759 142.078 46.8476C139.215 37.4619 134.77 28.6123 129.254 20.5592C128.014 18.7686 126.857 16.7646 124.982 15.0286L124.453 17.3764C125.888 16.9097 127.114 16.3015 128.337 15.3982C128.936 14.9342 129.543 14.4032 130.024 13.5671C130.532 12.7748 130.661 11.3371 130.111 10.4151C128.089 6.87238 126.866 3.28827 123.005 0.0227428L122.397 -0.155741C119.721 -0.336286 117.442 1.25227 115.735 2.26327C112.916 3.9206 109.924 5.40963 107.021 7.18685L106.98 7.21297C104.504 8.70059 102.55 11.7908 102.526 14.767C102.141 19.0224 105.303 22.165 106.911 24.8585C108.662 27.7696 110.394 30.6793 111.913 33.6649C116.527 42.5748 119.569 52.2943 120.853 62.2529C121.286 65.8524 121.605 69.4988 121.493 73.0748C121.302 78.5997 120.168 84.0925 118.149 89.2475C115.548 95.9107 111.466 101.998 106.27 106.942C103.97 109.14 101.437 111.095 98.7259 112.764C97.6658 113.419 96.5193 113.989 95.3887 114.717ZM96.0848 115.791L95.3887 114.717L95.4615 114.676L96.012 115.832L96.0848 115.791Z" fill="#EDECEB"></path>
</g>
<path d="M20.4736 14.7841C20.7307 14.9897 20.99 15.1898 21.2505 15.3846C23.5947 17.1374 26.0856 18.4532 28.7221 19.3319C29.7742 19.6825 30.849 19.9635 31.9466 20.175L30.9935 18.338C30.725 20.0014 30.6159 21.7126 30.6659 23.4716C30.675 23.7968 30.6898 24.1236 30.7103 24.4521C30.9082 24.189 31.1004 23.9243 31.2869 23.6579C32.2981 22.2172 33.1489 20.7285 33.8404 19.1921C33.9701 18.3872 33.6868 17.5094 32.8861 17.3551C31.8818 16.8655 30.8524 16.4454 29.8015 16.0949C27.165 15.216 24.3829 14.7742 21.4552 14.7696C21.1299 14.769 20.8023 14.7739 20.4736 14.7841Z" fill="#EDECEB"></path>
<path d="M127.96 14.784C127.7 14.9904 127.442 15.1904 127.183 15.3845C124.838 17.1375 122.349 18.4528 119.712 19.3318C118.66 19.6821 117.587 19.9629 116.487 20.1748L117.441 18.3378C117.709 20.0012 117.819 21.7125 117.767 23.4715C117.758 23.7966 117.744 24.1234 117.723 24.4519C117.525 24.1888 117.333 23.9241 117.146 23.6578C116.136 22.217 115.286 20.7284 114.594 19.192C114.463 18.387 114.746 17.5092 115.547 17.355C116.554 16.8649 117.582 16.445 118.633 16.0946C121.27 15.2157 124.05 14.7744 126.978 14.7695C127.302 14.7695 127.629 14.7746 127.96 14.784Z" fill="#EDECEB"></path>
<path d="M43.6797 137.033L48.939 139.119" stroke="#EDECEB" stroke-width="0.454967"></path>
<path d="M117.259 117.149C116.396 118.043 115.494 118.923 114.549 119.786L111.054 115.241C111.94 114.587 112.793 113.915 113.615 113.225L117.259 117.149ZM128.975 99.096C126.783 104.53 123.711 109.77 119.563 114.616L116.15 110.942C120.251 107.001 123.437 102.599 125.857 97.9086L128.975 99.096ZM130.633 94.4231C130.481 94.9149 130.322 95.4055 130.158 95.8948L127.325 94.8163C127.502 94.4113 127.673 94.005 127.84 93.5967L130.633 94.4231ZM133.515 73.0668C133.619 79.037 133.039 85.1445 131.547 91.1353L129.028 90.3889C130.923 84.7556 131.918 78.8814 132.242 73.0234L133.515 73.0668ZM133.185 67.0499C133.265 67.911 133.33 68.7774 133.382 69.648L132.357 69.6135C132.369 68.7641 132.365 67.916 132.35 67.0699L133.185 67.0499ZM131.543 56.5156C132.049 58.8239 132.473 61.2072 132.799 63.6454L132.222 63.6587C132.085 61.2492 131.855 58.8622 131.543 56.5156Z" fill="#EDECEB" stroke="#EDECEB" stroke-width="3.41225"></path>
<path d="M31.6219 117.149C32.4852 118.043 33.3872 118.923 34.3323 119.786L37.8276 115.241C36.9416 114.587 36.0885 113.915 35.2661 113.225L31.6219 117.149ZM19.9067 99.096C22.0984 104.53 25.1706 109.77 29.3187 114.616L32.7309 110.942C28.6306 107.001 25.4447 102.599 23.0243 97.9086L19.9067 99.096ZM18.2483 94.4231C18.4007 94.9149 18.5588 95.4055 18.7238 95.8948L21.5559 94.8163C21.3796 94.4113 21.2078 94.005 21.0418 93.5967L18.2483 94.4231ZM15.3661 73.0668C15.2626 79.037 15.8427 85.1445 17.3327 91.1353L19.8532 90.3889C17.9583 84.7556 16.9631 78.8814 16.6389 73.0234L15.3661 73.0668ZM15.696 67.0499C15.6164 67.911 15.5516 68.7774 15.4992 69.648L16.524 69.6135C16.5127 68.7641 16.5161 67.916 16.5309 67.0699L15.696 67.0499ZM17.3384 56.5156C16.8323 58.8239 16.408 61.2072 16.0827 63.6454L16.6594 63.6587C16.7959 61.2492 17.0268 58.8622 17.3384 56.5156Z" fill="#EDECEB" stroke="#EDECEB" stroke-width="3.41225"></path>
<path d="M39.8096 138.767C47.9841 136.886 51.4725 135.189 56.1882 130.805C66.1177 136.61 83.7622 137.072 92.5851 130.805C98.0867 135.111 101.718 137.569 108.054 138.767" stroke="#EDECEB" stroke-width="3.41225"></path>
<path d="M112.035 134.217C104.367 134.077 99.5236 133.647 92.6992 129.098L106.348 139.334L112.035 134.217Z" fill="#EDECEB"></path>
<path d="M37.5342 133.648C45.2037 133.509 48.9082 133.647 55.7326 129.098L43.7899 139.334L37.5342 133.648Z" fill="#EDECEB"></path>
<path d="M74.5005 110.329C95.5442 110.329 112.603 93.2698 112.603 72.2261C112.603 51.1823 95.5442 34.123 74.5005 34.123C53.4568 34.123 36.3975 51.1823 36.3975 72.2261C36.3975 93.2698 53.4568 110.329 74.5005 110.329Z" fill="#EDECEB"></path>
<path d="M74.5 104.074C93.3451 104.074 108.622 88.7973 108.622 69.9522C108.622 51.1071 93.3451 35.8301 74.5 35.8301C55.6549 35.8301 40.3779 51.1071 40.3779 69.9522C40.3779 88.7973 55.6549 104.074 74.5 104.074Z" fill="#272F42" stroke="#EDECEB" stroke-width="3.41225"></path>
<path d="M74.5005 96.1113C89.2625 96.1113 101.229 84.1443 101.229 69.3823C101.229 54.6203 89.2625 42.6533 74.5005 42.6533C59.7385 42.6533 47.7715 54.6203 47.7715 69.3823C47.7715 84.1443 59.7385 96.1113 74.5005 96.1113Z" fill="#272F42" stroke="#EDECEB" stroke-width="3.41225"></path>
<path d="M53.9944 60.2378C53.6599 61.9732 53.4592 63.9755 53.4592 66.1114C53.4592 68.5143 53.7268 70.9839 54.1952 73.32C55.0649 77.3914 57.2728 81.9302 58.8786 84.4665C62.2239 89.6727 68.8476 93.4104 75.8058 93.4104C77.1439 93.4104 78.4821 93.277 79.8202 93.01C88.0496 91.2078 94.0712 84.1995 95.2086 76.724C95.4762 75.2556 95.61 73.1865 95.61 71.0506C95.61 68.9147 95.4093 66.5786 95.0079 64.5763C94.0712 60.171 92.2647 55.6991 89.7892 52.4953C86.0424 47.6896 79.8871 44.2855 73.3303 44.2855C71.9922 44.2855 70.654 44.419 69.3159 44.686C61.3541 46.4214 55.3995 53.2295 53.9944 60.2378ZM47.17 74.7216C46.7686 72.9195 46.6348 71.0506 46.6348 69.3152C46.6348 55.6323 57.2728 44.0185 68.4461 41.6157C70.4533 41.1485 72.3936 40.9482 74.4008 40.9482C87.2467 40.9482 98.8884 49.8254 101.698 62.8409C102.167 64.8432 102.368 66.8456 102.368 68.7812C102.368 81.5964 93.469 93.1435 80.4223 95.9468C78.0806 96.4808 75.8058 96.681 73.531 96.681C61.0865 96.681 50.1139 89.1387 47.17 74.7216Z" fill="#EDECEB"></path>
</svg>