<svg width="202" height="54" viewBox="0 0 202 54" fill="none" xmlns="http://www.w3.org/2000/svg">
<path d="M167.665 27.3903L167.664 27.3907C167.663 27.3916 167.661 27.3928 167.659 27.3944C167.654 27.3977 167.647 27.4022 167.637 27.4088C167.618 27.4219 167.59 27.442 167.557 27.4678C167.489 27.5194 167.398 27.5948 167.306 27.6875C167.115 27.8776 166.94 28.1194 166.907 28.3727L166.908 28.3731C166.754 29.735 166.735 31.6396 166.735 34.8532C166.735 36.3511 166.754 37.8864 166.798 39.1291C166.82 39.7504 166.847 40.2971 166.881 40.7283C166.911 41.1045 166.945 41.3816 166.981 41.5443C166.989 41.5467 166.998 41.55 167.009 41.5529C167.06 41.5656 167.129 41.5771 167.217 41.5877C167.391 41.6086 167.624 41.623 167.894 41.6324C168.435 41.6516 169.113 41.6516 169.762 41.6516C170.372 41.6516 171.041 41.6516 171.581 41.6324C171.852 41.623 172.087 41.6086 172.264 41.5877C172.353 41.5771 172.424 41.5656 172.476 41.5529C172.484 41.5508 172.491 41.548 172.498 41.5459C172.523 41.3889 172.552 41.1213 172.577 40.7598C172.607 40.3332 172.633 39.7877 172.656 39.1651C172.702 37.9196 172.731 36.3696 172.731 34.8532C172.731 31.6281 172.616 29.5047 172.538 28.3469L172.532 28.283C172.491 27.9682 172.325 27.7547 172.159 27.6145C172.069 27.5395 171.982 27.4866 171.916 27.453C171.884 27.4362 171.857 27.4239 171.839 27.4166C171.831 27.4129 171.824 27.41 171.82 27.4084C171.818 27.4075 171.816 27.4071 171.816 27.4071L171.87 27.0883H175.545V27.4166C175.575 27.4166 175.598 27.4071 175.598 27.4071C175.604 27.4051 175.608 27.403 175.61 27.4026L175.596 27.4112C175.578 27.4227 175.551 27.4411 175.519 27.4661C175.453 27.5157 175.365 27.5883 175.275 27.6793C175.091 27.8653 174.916 28.1108 174.875 28.3793C174.723 29.5268 174.703 31.64 174.703 34.8532C174.703 36.3499 174.737 37.9622 174.795 39.2602C174.824 39.9094 174.859 40.4783 174.898 40.9139C174.918 41.132 174.939 41.3152 174.96 41.4574C174.971 41.5291 174.982 41.5869 174.992 41.6324H176.946L176.946 41.7959L176.966 46.1665L176.641 46.2017V46.2013C176.641 46.2013 176.641 46.2005 176.641 46.1997C176.641 46.198 176.64 46.1956 176.639 46.1923C176.638 46.1857 176.636 46.1759 176.633 46.1628C176.627 46.1366 176.617 46.098 176.605 46.0489C176.579 45.9497 176.54 45.8075 176.486 45.6366C176.378 45.2943 176.211 44.8394 175.975 44.3865C175.496 43.4668 174.768 42.618 173.727 42.618H163.921L163.869 42.2984C163.87 42.2984 163.871 42.2976 163.873 42.2967C163.877 42.2955 163.883 42.293 163.892 42.2898C163.909 42.2828 163.935 42.2713 163.966 42.2557C164.029 42.2238 164.114 42.1734 164.2 42.1012C164.371 41.9574 164.545 41.7295 164.57 41.3783C164.647 40.1623 164.763 37.8844 164.763 34.8532C164.763 31.6273 164.666 29.5035 164.589 28.3469C164.564 27.9969 164.386 27.7641 164.209 27.6145C164.12 27.5395 164.033 27.4866 163.967 27.453C163.935 27.4358 163.908 27.4239 163.891 27.4166C163.882 27.4129 163.875 27.41 163.871 27.4084C163.869 27.4075 163.868 27.4075 163.867 27.4071L163.867 27.4067L163.921 27.0883H168.136L167.665 27.3903ZM112.449 26.5087C116.237 26.5087 119.671 29.1326 120.5 32.9818C120.638 33.5745 120.697 34.1663 120.697 34.7376C120.697 38.5254 118.074 41.9389 114.226 42.7689L114.226 42.7693C113.535 42.9271 112.865 42.9861 112.198 42.9861C108.527 42.9861 105.284 40.75 104.417 36.4917L104.417 36.4913C104.298 35.9548 104.259 35.4019 104.259 34.8925C104.259 30.849 107.389 27.4198 110.69 26.7063C111.284 26.5678 111.858 26.5087 112.449 26.5087ZM90.6533 27.0415V27.042L90.6529 27.0424C90.6529 27.0424 90.6527 27.0432 90.6524 27.0444C90.652 27.0461 90.6513 27.0489 90.6504 27.0522C90.6488 27.0592 90.6465 27.0694 90.6432 27.0829C90.6368 27.11 90.6273 27.1497 90.6156 27.1997C90.5922 27.3002 90.5596 27.4424 90.5236 27.608C90.4517 27.9387 90.3655 28.3625 90.3083 28.7428C90.251 29.2289 90.2179 29.8957 90.1986 30.4437C90.189 30.717 90.1826 30.9601 90.179 31.1342C90.1772 31.2215 90.1761 31.2912 90.1753 31.3396C90.175 31.3638 90.1747 31.3826 90.1746 31.3953C90.1745 31.4015 90.1746 31.406 90.1746 31.4092C90.1745 31.4109 90.1742 31.4121 90.1742 31.4129V31.4142L89.8504 31.4486V31.4482L89.85 31.4465C89.8496 31.4449 89.8491 31.4424 89.8484 31.4396C89.8469 31.4334 89.845 31.424 89.842 31.4121C89.8359 31.3875 89.8263 31.3506 89.8135 31.3039C89.7881 31.2105 89.7494 31.0756 89.6955 30.9142C89.5875 30.5904 89.4207 30.1596 89.1852 29.7309C88.7082 28.8629 87.9814 28.0559 86.9355 28.0559H82.8899C82.7966 29.1719 82.6744 31.3961 82.6525 34.3609L85.4061 34.3425C86.1905 34.3236 86.6558 34.0757 86.9226 33.8458C87.0574 33.7298 87.1445 33.6158 87.1972 33.5326C87.2236 33.4908 87.2413 33.4568 87.252 33.4343C87.2573 33.4232 87.2612 33.4154 87.2632 33.4105L87.2648 33.4056V33.406L87.5826 33.4626V36.2474L87.268 36.311C87.2676 36.3102 87.2669 36.3085 87.2656 36.3061C87.2632 36.3007 87.2589 36.2925 87.2528 36.2811C87.2406 36.2581 87.2206 36.2237 87.192 36.1811C87.1346 36.0962 87.0418 35.9802 86.9034 35.8618C86.646 35.6417 86.2234 35.4065 85.557 35.3552L85.4206 35.3474H82.6521C82.674 38.6438 82.8111 40.711 82.8899 41.6922H86.953C87.9886 41.6832 88.7113 40.8635 89.1868 39.9819C89.4213 39.5471 89.5878 39.111 89.6955 38.7831C89.7492 38.6196 89.7881 38.4836 89.8135 38.3885C89.8262 38.3413 89.8355 38.304 89.8416 38.2794C89.8446 38.2667 89.8469 38.2569 89.8484 38.2508C89.8491 38.2479 89.8496 38.2454 89.85 38.2442C89.8501 38.2434 89.8504 38.243 89.8504 38.243L90.1742 38.2762V38.2774C90.1742 38.2782 90.1745 38.2794 90.1746 38.2811C90.1746 38.284 90.1745 38.2889 90.1746 38.2954C90.1747 38.3081 90.175 38.327 90.1753 38.3512C90.1761 38.3999 90.1772 38.4708 90.179 38.5586C90.1826 38.7344 90.189 38.9791 90.1986 39.2541C90.2179 39.8049 90.2515 40.4709 90.3086 40.9467C90.3659 41.3275 90.4516 41.7566 90.5236 42.0922C90.5596 42.2607 90.5922 42.4049 90.6156 42.507C90.6273 42.5578 90.6368 42.5984 90.6432 42.6263C90.6465 42.6402 90.6491 42.6508 90.6509 42.6578C90.6517 42.6615 90.6524 42.6644 90.6529 42.6664C90.653 42.6672 90.6533 42.6685 90.6533 42.6685V42.6689L90.7117 42.9115L90.4655 42.8685H90.4647C90.4647 42.8685 90.4632 42.8681 90.462 42.8681C90.4594 42.8676 90.4555 42.8668 90.4503 42.866C90.4398 42.8644 90.4238 42.8615 90.4027 42.8578C90.3606 42.8513 90.2978 42.8418 90.2162 42.8299C90.0528 42.8066 89.8136 42.7754 89.5125 42.7443C88.9102 42.682 88.06 42.6193 87.0707 42.6193H79.134L79.6795 42.3127L79.6803 42.3119C79.6812 42.3115 79.6828 42.3107 79.6848 42.3098C79.6887 42.3074 79.6949 42.3041 79.7027 42.2992C79.7184 42.2898 79.7414 42.2758 79.7692 42.2582C79.8252 42.2221 79.9005 42.1705 79.9773 42.1094C80.0546 42.0484 80.13 41.9795 80.1894 41.909C80.2473 41.8406 80.2807 41.7803 80.2935 41.7311C80.3707 40.7807 80.5052 38.6028 80.5052 34.8159C80.5052 31.44 80.351 29.0096 80.2547 27.9104L80.2471 27.8764C80.2357 27.8403 80.2121 27.7981 80.1726 27.7506C80.1209 27.6887 80.0514 27.6289 79.9777 27.5752C79.9048 27.5223 79.8323 27.4784 79.7776 27.4481C79.7504 27.4329 79.7281 27.4211 79.7127 27.4133C79.7051 27.4092 79.6989 27.4067 79.6951 27.4047L79.6903 27.4026L79.76 27.0903H87.0707C88.06 27.0903 88.9102 27.0276 89.5125 26.9653C89.8136 26.9342 90.0528 26.903 90.2162 26.8797C90.2978 26.8682 90.3606 26.8583 90.4027 26.8518C90.4238 26.8485 90.4398 26.8456 90.4503 26.8436C90.4555 26.8428 90.4594 26.842 90.462 26.8415C90.4631 26.8415 90.4647 26.8411 90.4647 26.8411H90.4655L90.7129 26.7977L90.6533 27.0415ZM189.434 27.0415V27.042L189.433 27.0424C189.433 27.0424 189.433 27.0432 189.433 27.0444C189.432 27.0461 189.431 27.0489 189.431 27.0522C189.429 27.0592 189.427 27.0694 189.424 27.0829C189.417 27.11 189.408 27.1497 189.396 27.1997C189.372 27.3002 189.34 27.4424 189.304 27.608C189.232 27.9387 189.146 28.3625 189.088 28.7428C189.031 29.2289 188.998 29.8957 188.979 30.4437C188.969 30.717 188.963 30.9601 188.959 31.1342C188.957 31.2215 188.956 31.2912 188.956 31.3396C188.955 31.3638 188.955 31.3826 188.955 31.3953C188.955 31.4015 188.955 31.406 188.955 31.4092C188.955 31.4109 188.954 31.4121 188.954 31.4129V31.4142L188.631 31.4486V31.4482L188.63 31.4465C188.63 31.4449 188.629 31.4424 188.629 31.4396C188.627 31.4334 188.625 31.424 188.622 31.4121C188.616 31.3875 188.606 31.3506 188.594 31.3039C188.568 31.2105 188.53 31.0756 188.476 30.9142C188.368 30.5904 188.201 30.1596 187.965 29.7309C187.488 28.8629 186.762 28.0559 185.716 28.0559H181.67C181.577 29.1719 181.455 31.3961 181.433 34.3609L184.186 34.3425C184.971 34.3236 185.436 34.0757 185.703 33.8458C185.838 33.7298 185.925 33.6158 185.977 33.5326C186.004 33.4908 186.022 33.4568 186.032 33.4343C186.038 33.4232 186.041 33.4154 186.044 33.4105L186.045 33.4056V33.406L186.363 33.4626V36.2474L186.048 36.311C186.048 36.3102 186.047 36.3085 186.046 36.3061C186.043 36.3007 186.039 36.2925 186.033 36.2811C186.021 36.2581 186.001 36.2237 185.972 36.1811C185.915 36.0962 185.822 35.9802 185.684 35.8618C185.426 35.6417 185.004 35.4065 184.337 35.3552L184.201 35.3474H181.433C181.454 38.6438 181.591 40.711 181.67 41.6922H185.733C186.769 41.6832 187.492 40.8635 187.967 39.9819C188.202 39.5471 188.368 39.111 188.476 38.7831C188.529 38.6196 188.568 38.4836 188.594 38.3885C188.606 38.3413 188.616 38.304 188.622 38.2794C188.625 38.2667 188.627 38.2569 188.629 38.2508C188.629 38.2479 188.63 38.2454 188.63 38.2442C188.63 38.2434 188.631 38.243 188.631 38.243L188.954 38.2762V38.2774C188.954 38.2782 188.955 38.2794 188.955 38.2811C188.955 38.284 188.955 38.2889 188.955 38.2954C188.955 38.3081 188.955 38.327 188.956 38.3512C188.956 38.3999 188.957 38.4708 188.959 38.5586C188.963 38.7344 188.969 38.9791 188.979 39.2541C188.998 39.8049 189.032 40.4709 189.089 40.9467C189.146 41.3275 189.232 41.7566 189.304 42.0922C189.34 42.2607 189.372 42.4049 189.396 42.507C189.408 42.5578 189.417 42.5984 189.424 42.6263C189.427 42.6402 189.429 42.6508 189.431 42.6578C189.432 42.6615 189.433 42.6644 189.433 42.6664C189.433 42.6672 189.434 42.6685 189.434 42.6685V42.6689L189.492 42.9115L189.246 42.8685H189.245C189.245 42.8685 189.243 42.8681 189.242 42.8681C189.24 42.8676 189.236 42.8668 189.231 42.866C189.22 42.8644 189.204 42.8615 189.183 42.8578C189.141 42.8513 189.078 42.8418 188.997 42.8299C188.833 42.8066 188.594 42.7754 188.293 42.7443C187.69 42.682 186.84 42.6193 185.851 42.6193H177.914L178.46 42.3127L178.461 42.3119C178.462 42.3115 178.463 42.3107 178.465 42.3098C178.469 42.3074 178.475 42.3041 178.483 42.2992C178.499 42.2898 178.521 42.2758 178.549 42.2582C178.605 42.2221 178.681 42.1705 178.757 42.1094C178.835 42.0484 178.91 41.9795 178.97 41.909C179.028 41.8406 179.061 41.7803 179.074 41.7311C179.151 40.7807 179.285 38.6028 179.285 34.8159C179.285 31.44 179.131 29.0096 179.035 27.9104L179.027 27.8764C179.016 27.8403 178.992 27.7981 178.953 27.7506C178.901 27.6887 178.832 27.6289 178.758 27.5752C178.685 27.5223 178.612 27.4784 178.558 27.4481C178.531 27.4329 178.508 27.4211 178.493 27.4133C178.485 27.4092 178.479 27.4067 178.476 27.4047L178.471 27.4026L178.54 27.0903H185.851C186.84 27.0903 187.69 27.0276 188.293 26.9653C188.594 26.9342 188.833 26.903 188.997 26.8797C189.078 26.8682 189.141 26.8583 189.183 26.8518C189.204 26.8485 189.22 26.8456 189.231 26.8436C189.236 26.8428 189.24 26.842 189.242 26.8415C189.243 26.8415 189.245 26.8411 189.245 26.8411H189.246L189.493 26.7977L189.434 27.0415ZM77.1848 27.1178C77.1848 27.1178 77.1847 27.1194 77.1845 27.1202C77.184 27.1219 77.1833 27.1247 77.1825 27.1284C77.1808 27.1354 77.1781 27.1461 77.1748 27.16C77.1684 27.1875 77.1591 27.228 77.1476 27.2788C77.1245 27.3809 77.0928 27.5248 77.058 27.6932C76.9882 28.0301 76.907 28.46 76.8595 28.8403L76.859 28.8428C76.7927 29.317 76.7591 29.9764 76.7422 30.5223C76.7338 30.7941 76.7295 31.0359 76.7274 31.2101C76.7263 31.297 76.7256 31.3666 76.7254 31.415V31.4892L76.4012 31.5244V31.524C76.4012 31.524 76.4009 31.5236 76.4008 31.5228C76.4005 31.5215 76.3999 31.5187 76.3992 31.5158C76.3977 31.5093 76.3954 31.5002 76.3924 31.4875C76.3863 31.4625 76.3771 31.4252 76.3644 31.3777C76.3389 31.2822 76.2998 31.1453 76.2459 30.981C76.1378 30.6514 75.9709 30.2137 75.7352 29.7777C75.2575 28.894 74.5308 28.0748 73.4862 28.0748H70.3508C70.2722 29.144 70.1343 31.3289 70.1119 34.2654L73.9897 34.2843C76.3032 34.2843 78.1758 36.1364 78.1758 38.452C78.1758 40.7664 76.3036 42.6381 73.989 42.6381H66.8047L67.0845 42.3586C67.102 42.341 67.1208 42.3307 67.1221 42.3299C67.128 42.3267 67.1334 42.3238 67.1373 42.3217C67.1452 42.3176 67.155 42.3135 67.1637 42.3094C67.1824 42.3004 67.206 42.2898 67.2337 42.2762C67.2893 42.2484 67.36 42.2103 67.4307 42.1611C67.5783 42.0582 67.6949 41.9287 67.7148 41.7762L67.7152 41.7721C67.8483 40.9164 67.965 38.4917 67.965 34.8929C67.965 31.4642 67.7919 28.9772 67.7144 27.9112C67.6942 27.783 67.5792 27.6596 67.4259 27.5567C67.3534 27.5079 67.2817 27.4698 67.2277 27.444C67.2009 27.4313 67.1786 27.4219 67.1637 27.4157C67.1564 27.4125 67.1509 27.4104 67.1473 27.4088C67.1455 27.4079 67.144 27.4075 67.1433 27.4071L67.1429 27.4067L67.2005 27.0895H73.6183C74.6211 27.0702 75.4698 27.0268 76.0674 26.9883C76.366 26.969 76.602 26.951 76.763 26.9379C76.8436 26.9313 76.9055 26.926 76.9471 26.9223C76.9678 26.9202 76.9835 26.9186 76.9939 26.9178C76.9992 26.9174 77.0034 26.917 77.0059 26.9165C77.0072 26.9165 77.0088 26.9165 77.0088 26.9165L77.0095 26.9161L77.2385 26.894L77.1848 27.1178ZM138.776 27.401L138.747 27.4157C138.726 27.4264 138.697 27.4428 138.66 27.4641C138.587 27.5071 138.49 27.5707 138.392 27.6518C138.19 27.819 138.016 28.0371 138.001 28.2875L137.991 28.4416H137.971C137.877 29.7059 137.769 31.9388 137.769 34.8142C137.769 37.186 137.842 38.9651 137.911 40.2016C138.681 38.8721 139.71 36.9606 140.861 34.5884L141.265 33.7499C142.175 31.8498 142.868 30.3457 143.347 29.2604C143.621 28.6399 143.825 28.1576 143.96 27.8162C144.027 27.6457 144.077 27.512 144.11 27.4149C144.126 27.3661 144.138 27.3284 144.145 27.301L144.152 27.2715V27.0883H147.546L147.625 27.3961L147.624 27.3965C147.623 27.3969 147.621 27.3977 147.619 27.3993C147.614 27.4018 147.607 27.4067 147.597 27.4125C147.578 27.4239 147.549 27.4416 147.515 27.4649C147.445 27.5116 147.351 27.5801 147.254 27.667C147.056 27.8444 146.866 28.0801 146.818 28.3453L146.818 28.3461C146.762 28.642 146.709 29.3309 146.67 30.2715C146.632 31.2068 146.608 32.3793 146.608 33.6347V34.8126L146.627 36.013C146.651 37.2048 146.686 38.3508 146.719 39.2717C146.741 39.8852 146.761 40.3983 146.776 40.7582C146.784 40.9385 146.79 41.0799 146.794 41.1766C146.796 41.2246 146.798 41.2619 146.799 41.2865C146.8 41.2992 146.8 41.3086 146.801 41.3152C146.801 41.3172 146.8 41.3188 146.801 41.3205C146.825 41.5746 147.012 41.8176 147.224 42.0111C147.327 42.1049 147.429 42.1812 147.505 42.2332C147.543 42.2594 147.575 42.2791 147.596 42.2926C147.607 42.2992 147.614 42.3041 147.62 42.3074C147.623 42.309 147.625 42.3103 147.626 42.3111H147.627L148.167 42.618H143.504L143.448 42.3L143.448 42.2996C143.449 42.2992 143.451 42.2988 143.454 42.2976C143.458 42.2959 143.466 42.2926 143.476 42.2885C143.496 42.2799 143.526 42.266 143.563 42.2471C143.636 42.2094 143.734 42.1508 143.833 42.0705C144.032 41.9086 144.225 41.666 144.25 41.3209V41.3188C144.346 40.1635 144.461 38.0405 144.461 34.8142C144.461 32.6306 144.39 30.8375 144.322 29.5424L138.078 42.4906V42.6381L137.914 42.6369L134.664 42.618L134.611 42.3021L134.61 42.2996L134.611 42.2992L134.616 42.2971C134.621 42.2955 134.629 42.2922 134.64 42.2881C134.66 42.2795 134.691 42.2652 134.728 42.2463C134.803 42.2086 134.904 42.1504 135.005 42.0697C135.21 41.9074 135.405 41.6648 135.43 41.3209V41.3188C135.526 40.1643 135.623 38.0417 135.623 34.8142C135.623 31.7818 135.508 29.5039 135.411 28.2903V28.2891C135.386 27.9453 135.201 27.7289 135.012 27.5932C134.917 27.5252 134.824 27.4789 134.753 27.4498C134.718 27.435 134.69 27.4252 134.67 27.419C134.66 27.4157 134.653 27.4137 134.649 27.4125C134.646 27.4116 134.645 27.4116 134.644 27.4112L134.685 27.0883H138.707L138.776 27.401ZM101.181 27.4116C101.18 27.412 101.178 27.4125 101.176 27.4129C101.172 27.4141 101.165 27.4161 101.156 27.419C101.137 27.4243 101.11 27.4334 101.077 27.4461C101.011 27.4719 100.923 27.5116 100.836 27.5698C100.664 27.6854 100.514 27.858 100.513 28.1198C100.513 28.1198 100.513 28.1211 100.513 28.1223C100.514 28.1284 100.515 28.1338 100.518 28.1477C100.523 28.1678 100.528 28.1973 100.53 28.2334C100.682 29.2285 100.982 30.9933 101.559 33.6191L101.824 34.7974V34.7978C102.5 37.8106 103.137 40.0889 103.504 41.3238L103.547 41.4508C103.659 41.7369 103.834 41.9475 103.99 42.0918C104.079 42.1742 104.161 42.234 104.22 42.273C104.249 42.2922 104.273 42.3062 104.289 42.3152C104.296 42.3197 104.302 42.323 104.306 42.325C104.307 42.3258 104.309 42.3267 104.309 42.3267L104.236 42.6369H100.155L100.081 42.3275L100.082 42.3267C100.084 42.3258 100.086 42.3246 100.089 42.323C100.095 42.3197 100.104 42.3148 100.116 42.3082C100.14 42.2947 100.175 42.275 100.217 42.2488C100.302 42.1967 100.413 42.1209 100.524 42.0283C100.757 41.8336 100.939 41.6008 100.939 41.3709C100.939 40.7414 100.798 39.8623 100.568 38.7594C100.339 37.6594 100.025 36.3524 99.6862 34.8704C99.0547 32.1117 98.5089 30.1256 98.1477 28.8879L94.6272 41.3959L94.626 41.3996L94.6248 41.4037C94.6156 41.4311 94.614 41.4795 94.614 41.5447C94.614 41.7779 94.7844 41.9672 95.0042 42.1115C95.1098 42.1808 95.2166 42.2328 95.2976 42.2672C95.3379 42.2844 95.3712 42.2971 95.394 42.3053C95.4055 42.3094 95.4144 42.3127 95.4201 42.3144L95.4273 42.3168L95.3785 42.6369H92.2258L92.1474 42.3291L92.1477 42.3287C92.1477 42.3287 92.1489 42.3287 92.1497 42.3283L92.1918 42.3041C92.221 42.2873 92.2634 42.2623 92.315 42.2303C92.4187 42.1664 92.5588 42.075 92.7049 41.9652C92.8513 41.8549 93.0011 41.7283 93.1255 41.5943C93.2514 41.459 93.3435 41.3254 93.3861 41.2012L93.3865 41.1996C93.8307 39.9631 94.6228 37.7233 95.4917 34.7298C95.9952 32.9871 96.4295 31.5302 96.7385 30.3953C96.8928 29.8285 97.015 29.3449 97.0987 28.949C97.1829 28.5502 97.2256 28.2498 97.2256 28.0453C97.2255 27.8887 97.0986 27.7334 96.9158 27.5998C96.8303 27.5375 96.7437 27.4879 96.678 27.4543C96.6454 27.437 96.6185 27.4239 96.6 27.4157C96.5908 27.4112 96.5833 27.4084 96.5788 27.4063C96.5766 27.4055 96.5749 27.4047 96.5739 27.4043L96.5732 27.4039L96.6356 27.0883H101.142L101.181 27.4116ZM129.871 27.4116H129.87C129.869 27.412 129.868 27.4125 129.866 27.4129C129.862 27.4141 129.855 27.4161 129.845 27.419C129.827 27.4243 129.8 27.4334 129.767 27.4461C129.7 27.4719 129.613 27.5116 129.526 27.5698C129.354 27.6854 129.204 27.858 129.203 28.1198C129.203 28.1198 129.203 28.1211 129.203 28.1223C129.204 28.1284 129.205 28.1338 129.208 28.1477C129.213 28.1678 129.218 28.1973 129.22 28.2334H129.22C129.372 29.2285 129.671 30.9933 130.249 33.6191L130.514 34.7974V34.7978C131.189 37.8106 131.827 40.0889 132.194 41.3238L132.237 41.4508C132.349 41.7369 132.523 41.9475 132.679 42.0918C132.768 42.1742 132.851 42.234 132.91 42.273C132.939 42.2922 132.963 42.3062 132.978 42.3152C132.986 42.3197 132.992 42.323 132.996 42.325C132.997 42.3258 132.998 42.3262 132.999 42.3267L132.926 42.6369H128.845L128.771 42.3275L128.772 42.3267C128.774 42.3258 128.776 42.3246 128.779 42.323C128.785 42.3197 128.794 42.3148 128.806 42.3082C128.83 42.2947 128.865 42.275 128.907 42.2488C128.991 42.1967 129.103 42.1209 129.214 42.0283C129.446 41.8336 129.629 41.6008 129.629 41.3709C129.629 40.7414 129.487 39.8623 129.258 38.7594C129.029 37.6594 128.715 36.3524 128.376 34.8704C127.745 32.1117 127.199 30.1256 126.838 28.8879L123.317 41.3959L123.316 41.3996L123.315 41.4037C123.305 41.4311 123.304 41.4795 123.304 41.5447C123.304 41.7779 123.474 41.9672 123.694 42.1115C123.8 42.1808 123.907 42.2328 123.987 42.2672C124.028 42.2844 124.061 42.2971 124.084 42.3053C124.095 42.3094 124.104 42.3127 124.11 42.3144L124.117 42.3168L124.068 42.6369H120.915L120.837 42.3291L120.838 42.3287C120.838 42.3287 120.839 42.3287 120.84 42.3283L120.881 42.3041C120.911 42.2873 120.953 42.2623 121.005 42.2303C121.109 42.1664 121.249 42.075 121.395 41.9652C121.541 41.8549 121.691 41.7283 121.816 41.5943C121.941 41.459 122.033 41.3254 122.076 41.2012L122.076 41.1996C122.52 39.9631 123.313 37.7233 124.182 34.7298C124.685 32.9871 125.119 31.5302 125.428 30.3953C125.583 29.8285 125.705 29.3449 125.789 28.949C125.873 28.5502 125.916 28.2498 125.916 28.0453C125.915 27.8887 125.789 27.7334 125.606 27.5998C125.52 27.5375 125.434 27.4879 125.368 27.4543C125.335 27.437 125.308 27.4239 125.29 27.4157C125.281 27.4112 125.273 27.4084 125.268 27.4063C125.266 27.4055 125.265 27.4047 125.264 27.4043L125.263 27.4039L125.325 27.0883H129.832L129.871 27.4116ZM196.188 27.0497C198.427 27.0497 200.24 28.8842 200.24 31.1207C200.24 32.4384 199.609 33.6101 198.624 34.3474C200.548 34.731 202 36.4237 202 38.4508C202 40.7664 200.127 42.6185 197.813 42.6185H191.025L190.946 42.3103L190.947 42.3098C190.948 42.309 190.95 42.3082 190.952 42.3074C190.956 42.3049 190.962 42.3017 190.97 42.2967C190.986 42.2873 191.01 42.2734 191.038 42.2557C191.095 42.2197 191.171 42.1693 191.248 42.1094C191.325 42.0496 191.398 41.9832 191.453 41.9172C191.51 41.8484 191.534 41.7947 191.539 41.7582C191.635 40.7381 191.77 38.52 191.77 34.8728C191.77 33.0552 191.76 31.5625 191.729 30.4023C191.697 29.2395 191.644 28.4199 191.559 27.9399C191.554 27.9075 191.526 27.8559 191.463 27.7875C191.404 27.7223 191.326 27.6571 191.245 27.5977C191.164 27.5387 191.084 27.4883 191.025 27.4526C190.995 27.4346 190.97 27.4206 190.954 27.4112C190.945 27.4067 190.939 27.4026 190.934 27.4006L190.929 27.3977L191.005 27.0887H192.415L196.187 27.0497H196.188ZM162.3 27.3686C162.286 27.3821 162.27 27.3936 162.261 27.4002C162.25 27.4079 162.237 27.4174 162.223 27.4268C162.194 27.4465 162.16 27.4694 162.119 27.4981C162.038 27.5547 161.937 27.6289 161.837 27.7166C161.629 27.8989 161.46 28.1084 161.438 28.3117C161.322 29.5424 161.226 31.8384 161.226 34.8532C161.226 38.1139 161.322 40.2348 161.419 41.3902C161.449 41.6344 161.639 41.8607 161.853 42.0377C161.957 42.123 162.059 42.1914 162.135 42.2381C162.173 42.2611 162.204 42.2791 162.226 42.291C162.236 42.2967 162.245 42.3008 162.25 42.3037C162.253 42.3049 162.255 42.3062 162.256 42.307C162.256 42.307 162.257 42.3074 162.257 42.3074L162.184 42.618H158.122L158.076 42.2963H158.076C158.077 42.2963 158.079 42.2959 158.081 42.2951C158.085 42.2939 158.092 42.2914 158.102 42.2881C158.12 42.2816 158.149 42.2709 158.183 42.2562C158.251 42.2262 158.344 42.1791 158.439 42.1119C158.629 41.9779 158.818 41.7725 158.868 41.4672C158.964 40.3496 159.08 38.1901 159.08 34.8532C159.08 31.9392 158.919 29.0141 158.822 28.1801C158.813 28.178 158.804 28.1748 158.794 28.1723C158.734 28.1588 158.653 28.1465 158.553 28.135C158.354 28.1121 158.092 28.0953 157.789 28.0834C157.186 28.0592 156.439 28.0543 155.763 28.0543C155.046 28.0543 154.29 28.0543 153.684 28.0735C153.381 28.0834 153.118 28.0977 152.919 28.119C152.819 28.1293 152.738 28.1416 152.677 28.1543C152.664 28.1571 152.653 28.1608 152.643 28.1633C152.48 29.2879 152.387 31.9166 152.387 34.8532C152.387 38.1143 152.503 40.236 152.599 41.3918C152.631 41.6369 152.817 41.8627 153.025 42.0385C153.127 42.1242 153.226 42.1922 153.301 42.2389C153.338 42.2619 153.369 42.2795 153.389 42.2914C153.4 42.2971 153.408 42.3017 153.413 42.3045C153.416 42.3058 153.418 42.3066 153.419 42.3074L153.42 42.3082L153.345 42.618H149.284L149.216 42.3049L149.217 42.3041C149.218 42.3037 149.22 42.3029 149.223 42.3017C149.227 42.2992 149.236 42.2955 149.246 42.2902C149.267 42.2795 149.298 42.2631 149.335 42.2414C149.411 42.1976 149.511 42.1332 149.612 42.0496C149.82 41.8783 150.006 41.6488 150.029 41.3762V41.3754C150.087 40.7426 150.241 38.3491 150.241 35.356V34.854C150.222 31.8199 150.125 29.5227 150.029 28.3096V28.3084C150.005 27.9657 149.815 27.7436 149.62 27.6026C149.523 27.5317 149.426 27.4829 149.353 27.4522C149.317 27.4366 149.288 27.426 149.268 27.4194C149.258 27.4157 149.25 27.4133 149.245 27.412C149.243 27.4112 149.242 27.4108 149.241 27.4104L149.284 27.0883H162.58L162.3 27.3686ZM134.8 42.3939L134.802 42.393C134.804 42.3922 134.805 42.391 134.806 42.3902C134.804 42.3914 134.802 42.3926 134.8 42.3939ZM147.113 42.1324C147.118 42.1373 147.124 42.1418 147.129 42.1463C147.097 42.1172 147.063 42.0861 147.031 42.0537L147.113 42.1324ZM152.758 42.0119C152.782 42.0373 152.807 42.0615 152.832 42.0853C152.807 42.0615 152.782 42.0373 152.758 42.0119H152.758ZM158.84 41.948L158.874 41.9C158.878 41.8934 158.881 41.8865 158.885 41.8799C158.871 41.9033 158.856 41.9262 158.84 41.948ZM114.199 41.7135L114.236 41.7049C114.278 41.6939 114.32 41.6811 114.361 41.6693C114.308 41.6848 114.253 41.6996 114.199 41.7135ZM112.14 27.8039C111.764 27.8039 111.388 27.8416 111.011 27.9166L111.011 27.9162C108.779 28.4051 107.105 30.3228 106.711 32.2929C106.616 32.7851 106.559 33.3552 106.559 33.9642C106.559 34.6482 106.635 35.3519 106.768 36.0188L106.819 36.2368C107.092 37.3335 107.671 38.5155 108.1 39.1942L108.19 39.3299C109.153 40.7197 110.96 41.7107 112.855 41.7107C113.23 41.7107 113.605 41.673 113.98 41.5979C116.29 41.091 117.983 39.1164 118.302 37.0147L118.302 37.0098C118.377 36.5979 118.416 36.0093 118.416 35.395C118.416 34.7859 118.358 34.1208 118.245 33.5531C117.978 32.2933 117.464 31.0224 116.767 30.1186C115.713 28.7625 113.979 27.8039 112.14 27.8039ZM72.8286 35.2503C72.0312 35.2503 70.9921 35.3183 70.111 35.3753C70.115 38.4479 70.2362 40.461 70.3132 41.5279C71.3069 41.6016 72.4485 41.6721 73.2541 41.6721C74.8703 41.6721 76.2426 40.0975 76.2427 38.452C76.2427 36.8085 74.9677 35.3425 73.3434 35.2696V35.2691C73.2627 35.2687 73.1781 35.2646 73.0952 35.2597C73.0082 35.2552 72.9203 35.2503 72.8286 35.2503ZM195.202 35.2105C194.952 35.2105 194.703 35.2155 194.459 35.2204C194.273 35.2241 194.091 35.2265 193.916 35.2282C193.92 38.3918 194.042 40.4418 194.135 41.5082C195.132 41.5836 196.273 41.6713 197.078 41.6713C198.694 41.6713 200.066 40.0967 200.066 38.4508C200.066 36.8077 198.773 35.3228 197.149 35.2491C196.628 35.2298 195.915 35.2105 195.202 35.2105ZM135.549 41.5729C135.558 41.5422 135.567 41.5111 135.574 41.4787L135.574 41.4758C135.568 41.5094 135.558 41.5414 135.549 41.5729ZM161.265 41.4672C161.266 41.4729 161.268 41.4783 161.269 41.484C161.267 41.4758 161.265 41.4676 161.264 41.459L161.265 41.4672ZM150.216 41.0938L150.218 41.0705C150.222 41.0209 150.225 40.9676 150.23 40.9111C150.225 40.9766 150.221 41.0377 150.216 41.0938ZM166.671 40.0082C166.673 40.0471 166.675 40.0852 166.677 40.1229C166.674 40.0688 166.671 40.0135 166.668 39.9573L166.671 40.0082ZM108.154 39.5606C108.166 39.5758 108.178 39.5909 108.189 39.6061C108.176 39.5881 108.161 39.57 108.148 39.5516L108.154 39.5606ZM76.3768 38.8799C76.3716 38.9172 76.3659 38.9545 76.3596 38.9913C76.3719 38.9188 76.3825 38.8463 76.39 38.7733L76.3768 38.8799ZM76.2331 37.3872L76.2251 37.3606C76.2194 37.3438 76.2126 37.3274 76.2067 37.3106C76.2157 37.336 76.2246 37.3614 76.2331 37.3872ZM195.183 28.0354C194.848 28.0354 194.498 28.0506 194.156 28.0674C194.078 29.1481 193.939 31.3179 193.917 34.2253H195.492C197.05 34.2253 198.365 32.7093 198.365 31.1207C198.365 29.5363 197.13 28.1112 195.586 28.0354H195.183ZM198.686 34.0904L198.78 34.0101C198.784 34.006 198.788 34.0019 198.792 33.9978C198.757 34.0294 198.722 34.0601 198.686 34.0904ZM198.822 33.9712C198.838 33.9564 198.855 33.9417 198.87 33.9265C198.883 33.9142 198.896 33.9015 198.909 33.8888C198.88 33.9167 198.851 33.9441 198.822 33.9712ZM199.125 33.6601C199.094 33.697 199.061 33.7331 199.027 33.7687C199.032 33.763 199.038 33.7577 199.044 33.7519C199.071 33.7216 199.099 33.6913 199.125 33.6601ZM159.215 32.6097L159.184 31.5543C159.183 31.5408 159.183 31.5273 159.182 31.5138C159.194 31.8658 159.206 32.2326 159.215 32.6097ZM191.865 29.5883C191.895 30.2887 191.913 31.1539 191.922 32.181L191.91 31.2076C191.9 30.5949 191.885 30.0547 191.865 29.5879V29.5883ZM197.467 28.6879H197.468C197.434 28.6563 197.399 28.6256 197.364 28.5957C197.399 28.6256 197.433 28.6563 197.467 28.6879ZM181.481 28.3576C181.478 28.3985 181.475 28.4412 181.472 28.4846C181.477 28.41 181.483 28.3383 181.488 28.2698L181.481 28.3576ZM82.7005 28.3576C82.6977 28.3957 82.6954 28.435 82.6925 28.4756C82.6977 28.4039 82.7027 28.3354 82.7077 28.2698L82.7005 28.3576ZM100.363 28.2059C100.362 28.2039 100.363 28.2018 100.362 28.2002L100.359 28.1834C100.36 28.1903 100.361 28.1981 100.363 28.2059ZM129.053 28.2059C129.052 28.2039 129.053 28.2018 129.052 28.2002L129.048 28.1834C129.05 28.1903 129.051 28.1981 129.053 28.2059ZM186.412 28.0096C186.406 28.0071 186.399 28.0055 186.392 28.003C186.399 28.0055 186.406 28.0075 186.412 28.0096ZM152.637 27.9957C152.605 28.0026 152.577 28.01 152.554 28.0178L152.643 27.9944L152.637 27.9957ZM152.997 27.9469C152.901 27.9551 152.816 27.9649 152.744 27.976L152.864 27.9604C152.906 27.9555 152.95 27.951 152.997 27.9469ZM195.893 27.9022C195.992 27.9182 196.091 27.9391 196.187 27.9653L196.041 27.9301C195.992 27.9194 195.943 27.91 195.893 27.9022ZM191.721 27.9104L191.713 27.8813C191.713 27.8789 191.712 27.8768 191.711 27.8743C191.715 27.8862 191.719 27.8981 191.721 27.9104ZM67.8773 27.892L67.8705 27.8543C67.8695 27.8498 67.8677 27.8457 67.8665 27.8416C67.8709 27.858 67.8749 27.8748 67.8773 27.892ZM111.994 27.642C112.042 27.6407 112.092 27.6399 112.14 27.6399C112.091 27.6399 112.043 27.6407 111.994 27.642ZM167.457 27.3375C167.445 27.3469 167.432 27.3575 167.418 27.3686C167.446 27.3461 167.472 27.3272 167.494 27.3112C167.483 27.3194 167.47 27.3276 167.457 27.3375ZM115.102 8.14531L115.103 8.14859H115.102C115.101 8.149 115.1 8.14941 115.098 8.14982C115.094 8.15105 115.087 8.1531 115.078 8.15597C115.06 8.16129 115.034 8.17031 115.002 8.18301C114.938 8.20842 114.853 8.24859 114.769 8.30638C114.601 8.42114 114.453 8.59409 114.453 8.85803C114.453 8.85885 114.453 8.85966 114.453 8.85966C114.454 8.86581 114.456 8.87115 114.458 8.88508C114.463 8.90516 114.468 8.93467 114.47 8.97074L114.544 9.44492C114.723 10.5753 115.037 12.3802 115.608 14.9323L115.744 15.5348C116.509 18.8898 117.22 21.3263 117.563 22.4279H119.249V26.9047L118.925 26.9403V26.9399L118.925 26.9383C118.924 26.9366 118.924 26.9342 118.923 26.9309C118.922 26.9247 118.92 26.9149 118.916 26.9026C118.911 26.8772 118.901 26.8399 118.888 26.7915C118.863 26.6956 118.824 26.5575 118.771 26.3911C118.664 26.0575 118.499 25.6132 118.267 25.1669C117.799 24.2624 117.089 23.4107 116.084 23.3554H108.568C107.573 23.4107 106.868 24.2616 106.401 25.1665C106.171 25.6132 106.007 26.0571 105.9 26.3907C105.847 26.5571 105.808 26.6956 105.782 26.7915C105.77 26.8399 105.761 26.8772 105.755 26.9026C105.752 26.9149 105.749 26.9247 105.748 26.9309C105.747 26.9342 105.746 26.9366 105.746 26.9383L105.746 26.9399V26.9403L105.422 26.9047V22.4279H107.134C107.507 21.4078 108.388 18.9299 109.412 15.4094L109.413 15.4086C109.897 13.7712 110.326 12.3876 110.635 11.2798C110.946 10.1658 111.127 9.35599 111.127 8.86008C111.127 8.74245 111.044 8.59327 110.902 8.44367C110.764 8.29941 110.6 8.18506 110.502 8.13629L110.576 7.82563H115.063L115.102 8.14531ZM124.943 8.13834L124.914 8.1531C124.893 8.16375 124.864 8.18015 124.827 8.20146C124.754 8.2445 124.657 8.30802 124.559 8.38917C124.357 8.55638 124.183 8.77442 124.168 9.02483L124.158 9.17894H124.138C124.044 10.4433 123.936 12.6761 123.936 15.5516C123.936 17.9234 124.009 19.7025 124.078 20.939C124.848 19.6094 125.877 17.6979 127.028 15.3258L127.432 14.4872C128.342 12.5872 129.034 11.0831 129.514 9.9978C129.788 9.3773 129.991 8.89491 130.127 8.55351C130.194 8.38302 130.244 8.24941 130.277 8.15228C130.293 8.1035 130.305 8.0658 130.312 8.03834L130.319 8.00883V7.82563H133.713L133.792 8.13343L133.791 8.13383C133.79 8.13424 133.788 8.13507 133.786 8.1367C133.781 8.13916 133.774 8.14408 133.764 8.14982C133.745 8.16129 133.716 8.17892 133.682 8.20228C133.612 8.249 133.518 8.31745 133.421 8.40433C133.223 8.58179 133.033 8.81745 132.985 9.08262L132.985 9.08344C132.929 9.37935 132.876 10.0683 132.837 11.0089C132.799 11.9441 132.775 13.1167 132.775 14.3721V15.5499L132.794 16.7504C132.818 17.9422 132.853 19.0881 132.886 20.009C132.908 20.6226 132.928 21.1357 132.943 21.4955C132.951 21.6759 132.957 21.8173 132.961 21.914C132.963 21.9619 132.965 21.9992 132.966 22.0238C132.967 22.0365 132.967 22.046 132.968 22.0525C132.968 22.0546 132.967 22.0562 132.968 22.0579C132.992 22.312 133.179 22.555 133.391 22.7484C133.494 22.8423 133.596 22.9185 133.672 22.9706C133.71 22.9968 133.742 23.0165 133.763 23.03C133.774 23.0366 133.782 23.0415 133.787 23.0448C133.789 23.0464 133.792 23.0476 133.793 23.0484H133.794L134.334 23.3554H129.671L129.615 23.0374L129.615 23.037C129.616 23.0366 129.618 23.0361 129.621 23.0349C129.625 23.0333 129.633 23.03 129.643 23.0259C129.663 23.0173 129.693 23.0034 129.73 22.9845C129.803 22.9468 129.901 22.8882 130 22.8079C130.199 22.646 130.392 22.4034 130.416 22.0583V22.0562C130.513 20.9009 130.629 18.7779 130.629 15.5516C130.629 13.3679 130.557 11.5749 130.489 10.2798L124.245 23.228V23.3755L124.081 23.3743L120.831 23.3554L120.777 23.037L120.778 23.0366L120.783 23.0345C120.788 23.0329 120.796 23.0296 120.806 23.0255C120.827 23.0169 120.858 23.0025 120.895 22.9837C120.97 22.946 121.071 22.8878 121.172 22.807C121.377 22.6447 121.572 22.4021 121.597 22.0583V22.0562C121.693 20.9017 121.79 18.7791 121.79 15.5516C121.79 12.5192 121.675 10.2412 121.578 9.0277V9.02648C121.554 8.68262 121.368 8.46622 121.179 8.33056C121.084 8.26252 120.991 8.21621 120.92 8.18712C120.885 8.17236 120.856 8.16253 120.837 8.15638C120.827 8.1531 120.82 8.15105 120.815 8.14982C120.813 8.149 120.812 8.149 120.811 8.14859L120.852 7.82563H124.875L124.943 8.13834ZM160.281 8.13834L160.252 8.1531C160.231 8.16375 160.201 8.18015 160.165 8.20146C160.092 8.2445 159.994 8.30802 159.897 8.38917C159.694 8.55638 159.521 8.77442 159.506 9.02483L159.496 9.17894H159.475C159.381 10.4433 159.274 12.6761 159.274 15.5516C159.274 17.9234 159.346 19.7025 159.416 20.939C160.185 19.6094 161.215 17.6979 162.366 15.3258L162.77 14.4872C163.68 12.5872 164.372 11.0831 164.852 9.9978C165.126 9.3773 165.329 8.89491 165.465 8.55351C165.532 8.38302 165.582 8.24941 165.615 8.15228C165.631 8.1035 165.643 8.0658 165.65 8.03834L165.657 8.00883V7.82563H169.051L169.13 8.13343L169.129 8.13383C169.128 8.13424 169.126 8.13507 169.124 8.1367C169.119 8.13916 169.111 8.14408 169.102 8.14982C169.082 8.16129 169.054 8.17892 169.019 8.20228C168.95 8.249 168.856 8.31745 168.759 8.40433C168.561 8.58179 168.371 8.81745 168.322 9.08262L168.322 9.08344C168.267 9.37935 168.214 10.0683 168.175 11.0089C168.137 11.9441 168.113 13.1167 168.113 14.3721V15.5499L168.132 16.7504C168.155 17.9422 168.191 19.0881 168.224 20.009C168.245 20.6226 168.266 21.1357 168.281 21.4955C168.288 21.6759 168.295 21.8173 168.299 21.914C168.301 21.9619 168.303 21.9992 168.304 22.0238C168.304 22.0365 168.305 22.046 168.305 22.0525C168.305 22.0546 168.305 22.0562 168.305 22.0579C168.33 22.312 168.517 22.555 168.729 22.7484C168.832 22.8423 168.934 22.9185 169.01 22.9706C169.048 22.9968 169.079 23.0165 169.101 23.03C169.111 23.0366 169.119 23.0415 169.125 23.0448C169.127 23.0464 169.129 23.0476 169.131 23.0484H169.132L169.671 23.3554H165.008L164.953 23.0374L164.953 23.037C164.954 23.0366 164.956 23.0361 164.958 23.0349C164.963 23.0333 164.97 23.03 164.981 23.0259C165.001 23.0173 165.031 23.0034 165.068 22.9845C165.141 22.9468 165.239 22.8882 165.338 22.8079C165.537 22.646 165.729 22.4034 165.754 22.0583V22.0562C165.85 20.9009 165.966 18.7779 165.966 15.5516C165.966 13.3679 165.895 11.5749 165.827 10.2798L159.583 23.228V23.3755L159.419 23.3743L156.169 23.3554L156.115 23.037H156.115L156.116 23.0366L156.121 23.0345C156.126 23.0329 156.134 23.0296 156.144 23.0255C156.165 23.0169 156.196 23.0025 156.233 22.9837C156.308 22.946 156.409 22.8878 156.51 22.807C156.715 22.6447 156.91 22.4021 156.935 22.0583V22.0562C157.031 20.9017 157.128 18.7791 157.128 15.5516C157.128 12.5192 157.012 10.2412 156.916 9.0277V9.02648C156.891 8.68262 156.705 8.46622 156.517 8.33056C156.422 8.26252 156.328 8.21621 156.258 8.18712C156.223 8.17236 156.194 8.16253 156.175 8.15638C156.165 8.1531 156.158 8.15105 156.153 8.14982C156.151 8.149 156.15 8.149 156.149 8.14859L156.189 7.82563H160.212L160.281 8.13834ZM87.2533 8.149C87.2524 8.14941 87.2506 8.14982 87.2484 8.15023C87.2441 8.15146 87.2372 8.15351 87.228 8.15638C87.2097 8.16171 87.1825 8.17072 87.1496 8.18343C87.083 8.20925 86.9953 8.249 86.909 8.3072C86.7367 8.42278 86.5864 8.59532 86.5853 8.85721C86.5853 8.85721 86.5854 8.85844 86.5856 8.85966C86.5867 8.86581 86.5878 8.87115 86.5908 8.88508C86.5953 8.90516 86.6003 8.93467 86.6025 8.97074C86.7543 9.96584 87.0542 11.7306 87.6315 14.3565L87.8964 15.5348V15.5352C88.5723 18.548 89.2096 20.8263 89.5762 22.0611L89.6199 22.1882C89.7317 22.4743 89.9061 22.6849 90.0621 22.8292C90.1511 22.9116 90.2331 22.9714 90.2922 23.0103C90.3217 23.0296 90.3454 23.0435 90.3611 23.0525C90.3689 23.057 90.3747 23.0603 90.3783 23.0624C90.38 23.0632 90.3819 23.064 90.3819 23.064L90.3086 23.3743H86.2278L86.1534 23.0648L86.155 23.064C86.1564 23.0632 86.1584 23.062 86.1614 23.0603C86.1675 23.057 86.177 23.0521 86.189 23.0456C86.213 23.0321 86.2479 23.0124 86.2899 22.9861C86.3742 22.9341 86.4857 22.8583 86.5964 22.7657C86.8292 22.571 87.0115 22.3382 87.0115 22.1083C87.0115 21.4787 86.8702 20.5996 86.6405 19.4967C86.4112 18.3967 86.0978 17.0897 85.7588 15.6077C85.1272 12.8491 84.5814 10.863 84.2203 9.62526L80.6997 22.1333L80.6986 22.137L80.6974 22.1411C80.6882 22.1685 80.6865 22.2169 80.6865 22.282C80.6865 22.5152 80.8569 22.7046 81.0768 22.8489C81.1823 22.9181 81.2891 22.9702 81.3702 23.0046C81.4104 23.0218 81.4437 23.0345 81.4666 23.0427C81.478 23.0468 81.487 23.0501 81.4926 23.0517L81.4998 23.0542L81.451 23.3743H78.2983L78.2199 23.0665L78.2203 23.0661C78.2203 23.0661 78.2214 23.0661 78.2223 23.0657L78.2643 23.0415C78.2935 23.0247 78.3359 22.9997 78.3876 22.9677C78.4913 22.9038 78.6314 22.8124 78.7774 22.7025C78.9239 22.5923 79.0736 22.4656 79.1981 22.3316C79.3239 22.1964 79.416 22.0628 79.4586 21.9386L79.459 21.9369C79.9033 20.7004 80.6953 18.4607 81.5643 15.4672C82.0677 13.7245 82.502 12.2675 82.811 11.1327C82.9654 10.5658 83.0876 10.0822 83.1712 9.68632C83.2554 9.28755 83.2981 8.98713 83.2981 8.78262C83.298 8.62606 83.1711 8.47073 82.9883 8.33712C82.9029 8.27482 82.8163 8.22523 82.7506 8.19162C82.718 8.17441 82.691 8.16129 82.6725 8.1531C82.6633 8.14859 82.6559 8.14572 82.6513 8.14367C82.6491 8.14285 82.6474 8.14203 82.6465 8.14162L82.6457 8.14121L82.7081 7.82563H87.2144L87.2533 8.149ZM72.2627 7.78711C74.5011 7.78711 76.3143 9.62157 76.3143 11.8581C76.3143 13.1757 75.6835 14.3475 74.6982 15.0848C76.6224 15.4684 78.0741 17.161 78.0742 19.1881C78.0742 21.5037 76.201 23.3558 73.8873 23.3558H67.0989L67.0204 23.0476L67.0216 23.0472C67.0226 23.0464 67.0241 23.0456 67.026 23.0448C67.0301 23.0423 67.0364 23.039 67.0445 23.0341C67.0606 23.0247 67.084 23.0107 67.1125 22.9931C67.1697 22.957 67.2458 22.9066 67.3222 22.8468C67.3993 22.787 67.4727 22.7206 67.5275 22.6546C67.5843 22.5857 67.6089 22.532 67.6132 22.4956C67.7093 21.4755 67.8441 19.2574 67.8441 15.6102C67.8441 13.7925 67.8343 12.2999 67.8029 11.1396C67.7715 9.9769 67.7185 9.15721 67.634 8.67729C67.6279 8.64491 67.6006 8.59327 67.5379 8.52483C67.4783 8.45966 67.4002 8.39449 67.319 8.33507C67.2384 8.27605 67.1586 8.22564 67.0989 8.18999C67.0693 8.17195 67.0449 8.15801 67.028 8.14859C67.0196 8.14408 67.0131 8.13999 67.0088 8.13794L67.0032 8.13507L67.0797 7.82604H68.4897L72.2611 7.78711H72.2627ZM175.953 7.78711C178.192 7.78711 180.004 9.62157 180.004 11.8581C180.004 14.0749 178.211 15.8889 175.973 15.8897L175.974 15.8901L173.68 15.9082V16.5192C173.68 19.5295 173.782 21.4915 173.905 22.3984L173.93 22.5656L173.93 22.5706L173.931 22.5747C173.936 22.6226 173.961 22.6759 174.011 22.7337C174.061 22.7915 174.128 22.8452 174.2 22.8923C174.272 22.9386 174.343 22.9755 174.397 23.0009C174.424 23.0136 174.446 23.023 174.462 23.0296C174.469 23.0325 174.475 23.0349 174.478 23.0361C174.48 23.037 174.482 23.0374 174.482 23.0378L174.483 23.0382L174.425 23.3558H170.789L170.712 23.0468L170.713 23.0464L170.735 23.0341C170.751 23.0255 170.774 23.012 170.802 22.9952C170.857 22.9611 170.932 22.9128 171.007 22.8558C171.082 22.798 171.156 22.7337 171.211 22.6685C171.268 22.6034 171.295 22.5493 171.304 22.5091C171.381 21.5009 171.534 19.2455 171.534 15.5905C171.534 11.9634 171.4 9.61296 171.266 8.47933L171.253 8.45351C171.243 8.43999 171.228 8.42114 171.202 8.39737C171.154 8.35433 171.087 8.31089 171.016 8.27154C170.944 8.23261 170.874 8.20064 170.82 8.1781C170.793 8.16703 170.771 8.15843 170.757 8.15269C170.749 8.14982 170.743 8.14777 170.739 8.14613C170.737 8.14572 170.736 8.1449 170.735 8.14449H170.734L170.789 7.82604H172.199L175.951 7.78711H175.953ZM100.988 8.14777L100.984 8.149C100.979 8.15023 100.973 8.15228 100.964 8.15556C100.946 8.1613 100.92 8.17113 100.887 8.18466C100.823 8.21171 100.737 8.25433 100.653 8.31417C100.485 8.43425 100.336 8.61212 100.335 8.87606C100.335 8.87606 100.335 8.87729 100.335 8.87934C100.336 8.88508 100.338 8.89041 100.341 8.90434C100.345 8.92442 100.35 8.95393 100.352 8.99C100.526 10.1281 100.873 12.2708 101.627 15.5536L101.627 15.5545C102.303 18.5664 102.959 20.8447 103.326 22.0804L103.37 22.207C103.48 22.4906 103.65 22.6927 103.801 22.8275C103.887 22.9046 103.965 22.9595 104.022 22.9948C104.05 23.012 104.073 23.0243 104.088 23.032C104.095 23.0361 104.101 23.039 104.104 23.0407C104.106 23.0415 104.107 23.0419 104.107 23.0423L104.039 23.3554H99.9586L99.8889 23.0431C99.8889 23.0431 99.8893 23.0427 99.8901 23.0423C99.8913 23.0415 99.8938 23.0407 99.8967 23.039C99.9028 23.0361 99.9118 23.0316 99.9241 23.0255C99.9479 23.0132 99.9827 22.9943 100.025 22.9702C100.109 22.9214 100.22 22.8509 100.33 22.7632C100.562 22.5788 100.742 22.3558 100.742 22.1275C100.742 21.5275 100.606 20.6869 100.388 19.6344C100.177 18.616 99.8946 17.4168 99.595 16.0639H96.0989L94.4107 22.1136L94.4099 22.1177L94.4083 22.1214C94.399 22.1488 94.3975 22.1972 94.3975 22.2632C94.3975 22.4943 94.5705 22.6837 94.7961 22.8284C94.9041 22.898 95.0134 22.9501 95.0963 22.9845C95.1375 23.0017 95.1717 23.0148 95.1952 23.023C95.2068 23.0271 95.2157 23.0304 95.2216 23.032C95.2244 23.0333 95.2267 23.0337 95.228 23.0341L95.2292 23.0345L95.1811 23.3554H92.0481L91.9768 23.0435L91.986 23.039C91.9927 23.0357 92.0029 23.0308 92.016 23.0239C92.0424 23.0099 92.0806 22.9894 92.1277 22.9624C92.2222 22.9079 92.3511 22.8288 92.4875 22.7279C92.7659 22.5226 93.053 22.2464 93.1712 21.9341C94.5393 18.2533 95.8125 13.7413 96.9901 8.62729V8.60843C96.9901 8.59122 96.9786 8.55229 96.9233 8.49122C96.8712 8.43302 96.7966 8.374 96.7149 8.31949C96.6344 8.2658 96.553 8.22072 96.4911 8.18875C96.4603 8.17277 96.4347 8.16007 96.4171 8.15187C96.4083 8.14777 96.4015 8.14408 96.3971 8.14203C96.3949 8.14121 96.3933 8.1408 96.3923 8.14039L96.3911 8.13957L96.4579 7.82563H100.945L100.988 8.14777ZM144.194 8.14859L144.17 8.15597C144.152 8.16129 144.126 8.17031 144.094 8.18301C144.029 8.20842 143.944 8.24859 143.861 8.30638C143.693 8.42114 143.546 8.59368 143.545 8.85721C143.545 8.85721 143.545 8.85844 143.545 8.85966C143.546 8.86581 143.547 8.87115 143.55 8.88508C143.555 8.90516 143.56 8.93467 143.562 8.97074H143.562C143.725 10.0376 144.041 11.9876 144.7 14.9323L144.836 15.5348L144.837 15.5356C144.943 16.0123 145.048 16.5037 145.147 16.952C145.279 16.5201 145.411 16.0668 145.544 15.6032L145.544 15.6028L146.254 13.1999C146.469 12.4753 146.66 11.8269 146.818 11.2556C147.136 10.1072 147.317 9.29779 147.317 8.82155C147.317 8.68303 147.228 8.52892 147.092 8.38917C146.958 8.25023 146.813 8.16129 146.766 8.14326L146.823 7.82563H151.33L151.372 8.14777C151.371 8.14818 151.369 8.14859 151.367 8.14941C151.363 8.15064 151.356 8.15269 151.347 8.15597C151.328 8.1617 151.301 8.17154 151.268 8.18506C151.201 8.21252 151.114 8.25515 151.027 8.3154C150.853 8.4363 150.702 8.61376 150.7 8.87606C150.7 8.87606 150.7 8.87729 150.701 8.87934C150.702 8.88508 150.703 8.89041 150.707 8.90434C150.711 8.92442 150.716 8.95393 150.718 8.99L150.792 9.46419C150.971 10.5945 151.284 12.3995 151.856 14.9516L151.992 15.5536V15.5545C152.668 18.5664 153.325 20.8447 153.691 22.0804L153.735 22.2066C153.846 22.4894 154.02 22.6911 154.174 22.8263C154.262 22.9034 154.344 22.9583 154.402 22.9935C154.432 23.0111 154.455 23.0234 154.47 23.0312L154.49 23.0415L154.424 23.3554H150.363L150.293 23.0427L150.294 23.0423L150.326 23.0263C150.349 23.0144 150.382 22.9968 150.422 22.9734C150.502 22.9267 150.609 22.8587 150.714 22.7739C150.934 22.5956 151.107 22.3771 151.107 22.1468C151.107 21.5177 150.966 20.6332 150.737 19.5258C150.507 18.4205 150.194 17.109 149.855 15.627C149.207 12.8028 148.659 10.7798 148.298 9.54533L144.447 23.1972L144.414 23.3165H144.125L144.108 23.1722V23.1718L144.107 23.1714C144.107 23.1714 144.107 23.171 144.107 23.1702C144.107 23.1689 144.107 23.1665 144.106 23.164C144.106 23.1583 144.105 23.1501 144.103 23.139C144.101 23.1169 144.097 23.0841 144.091 23.0402C144.079 22.9525 144.061 22.821 144.037 22.6493C143.988 22.3054 143.911 21.798 143.802 21.1443C143.582 19.8369 143.23 17.9443 142.699 15.6073C142.068 12.8007 141.522 10.7945 141.161 9.56419L137.641 22.0513C137.627 22.1079 137.626 22.1484 137.626 22.205C137.626 22.4513 137.801 22.655 138.022 22.8107C138.127 22.8861 138.235 22.9431 138.316 22.9812C138.356 23.0005 138.39 23.0144 138.413 23.0239C138.424 23.0284 138.433 23.0321 138.438 23.0341L138.446 23.0366L138.391 23.3554H134.635L135.177 23.0484H135.177C135.177 23.0484 135.178 23.048 135.179 23.0476C135.181 23.0464 135.183 23.0452 135.187 23.0431C135.194 23.039 135.204 23.0329 135.218 23.0247C135.245 23.0083 135.284 22.9841 135.333 22.9525C135.429 22.8898 135.561 22.7993 135.7 22.6886C135.983 22.4615 136.271 22.171 136.381 21.8771C136.806 20.6783 137.617 18.3811 138.524 15.2737C139.449 12.0913 140.008 9.93428 140.22 8.87483C140.224 8.83835 140.233 8.8109 140.237 8.7986C140.238 8.79778 140.237 8.79696 140.238 8.79614C140.236 8.72606 140.208 8.65188 140.154 8.5736C140.097 8.49327 140.018 8.41704 139.933 8.35023C139.849 8.28425 139.764 8.23056 139.7 8.19326C139.668 8.17482 139.642 8.16048 139.624 8.15105L139.597 8.13794L139.667 7.82563H144.154L144.194 8.14859ZM108.171 23.2521C108.122 23.2644 108.075 23.2792 108.028 23.2952C108.076 23.2792 108.123 23.264 108.172 23.2517L108.171 23.2521ZM108.463 23.1993C108.457 23.1997 108.453 23.2001 108.448 23.2009C108.486 23.1964 108.525 23.1931 108.564 23.1911L108.463 23.1993ZM133.28 22.8698C133.285 22.8747 133.291 22.8792 133.296 22.8837C133.264 22.8546 133.23 22.8234 133.198 22.7911L133.28 22.8698ZM168.618 22.8698C168.623 22.8747 168.629 22.8792 168.634 22.8837C168.602 22.8546 168.568 22.8234 168.536 22.7911L168.618 22.8698ZM173.782 22.6591C173.783 22.6648 173.786 22.6702 173.788 22.6755C173.782 22.6591 173.777 22.6431 173.773 22.6259L173.782 22.6591ZM108.471 22.4279H114.93C114.757 21.2935 114.355 18.8898 113.607 15.6073C112.976 12.8327 112.43 10.845 112.068 9.60681L108.471 22.4279ZM71.2765 15.9479C71.027 15.9479 70.7772 15.9528 70.5329 15.9577C70.348 15.9614 70.1657 15.9639 69.9906 15.9655C69.9946 19.1291 70.1161 21.1791 70.2095 22.2456C71.2063 22.321 72.347 22.4087 73.1525 22.4087C74.7687 22.4087 76.1411 20.8341 76.1411 19.1881C76.141 17.5451 74.8476 16.0602 73.2237 15.9864C72.7028 15.9672 71.9894 15.9479 71.2765 15.9479ZM121.716 22.3103C121.725 22.2796 121.734 22.2484 121.741 22.2161L121.741 22.2132C121.735 22.2468 121.725 22.2788 121.716 22.3103ZM157.054 22.3103C157.063 22.2796 157.072 22.2484 157.079 22.2161L157.079 22.2132C157.072 22.2468 157.063 22.2788 157.054 22.3103ZM136.508 21.9968C136.481 22.0591 136.447 22.1201 136.408 22.18C136.404 22.1865 136.399 22.1927 136.395 22.1992C136.399 22.1931 136.404 22.1865 136.408 22.18C136.447 22.1201 136.481 22.0595 136.508 21.9972V21.9968ZM94.2358 22.1661C94.2354 22.1718 94.2353 22.1775 94.235 22.1833C94.2362 22.1607 94.2381 22.1378 94.2418 22.116L94.2358 22.1661ZM152.085 16.6869C152.105 16.7737 152.127 16.8598 152.147 16.9455C152.085 16.686 152.022 16.42 151.959 16.1475L152.085 16.6869ZM115.733 16.2123C115.769 16.3676 115.805 16.5209 115.841 16.6717C115.756 16.3168 115.671 15.9495 115.585 15.5708L115.733 16.2123ZM95.7859 14.1479C95.7272 14.3655 95.6682 14.5819 95.609 14.7967C95.6681 14.5819 95.7272 14.3659 95.7859 14.1483V14.1479ZM74.3608 15.1196L74.4645 15.0516C74.4784 15.0422 74.4918 15.0315 74.5057 15.0221C74.458 15.0553 74.41 15.0881 74.3608 15.1196ZM96.3839 15.0979H99.3643C98.7741 12.5642 98.2671 10.7249 97.9311 9.56992L96.3839 15.0979ZM71.2574 8.77278C70.9227 8.77278 70.5726 8.78795 70.2307 8.80475C70.1523 9.88551 70.0139 12.0552 69.9914 14.9626H71.5667C73.1244 14.9626 74.4392 13.4466 74.4392 11.8581C74.4392 10.2736 73.2046 8.8486 71.6608 8.77278H71.2574ZM174.909 8.77278C174.589 8.77278 174.244 8.77319 173.921 8.7859C173.843 9.86829 173.704 12.0536 173.682 14.9434H175.257C176.815 14.9434 178.129 13.4266 178.129 11.8581C178.129 10.2736 176.895 8.8486 175.351 8.77278H174.909ZM74.7602 14.8278L74.8539 14.7475C74.8582 14.7434 74.8623 14.7393 74.8667 14.7352C74.8317 14.7667 74.7964 14.7975 74.7602 14.8278ZM176.698 14.6844C176.655 14.711 176.611 14.7364 176.567 14.761L176.567 14.7614C176.638 14.7225 176.707 14.6794 176.774 14.6348C176.749 14.6516 176.724 14.6684 176.698 14.6844ZM74.8963 14.7085C74.9125 14.6938 74.9288 14.679 74.9447 14.6639C74.9579 14.6516 74.9706 14.6389 74.9836 14.6262C74.9549 14.654 74.9258 14.6815 74.8963 14.7085ZM75.2001 14.3975C75.168 14.4344 75.1351 14.4704 75.1016 14.5061C75.107 14.5003 75.1127 14.495 75.118 14.4893C75.146 14.4589 75.1732 14.4286 75.2001 14.3975ZM112.997 12.3831C113.153 12.9933 113.321 13.6684 113.497 14.4094L113.24 13.3475C113.156 13.0093 113.075 12.688 112.997 12.3831ZM67.939 10.3257C67.9692 11.0261 67.9871 11.8913 67.997 12.9183L67.9842 11.945C67.9738 11.3322 67.9591 10.7921 67.939 10.3253V10.3257ZM177.924 13.3401C177.901 13.386 177.876 13.4311 177.851 13.4757C177.902 13.3864 177.948 13.2946 177.992 13.2011L177.924 13.3401ZM147.465 9.10106C147.467 9.07524 147.47 9.04984 147.472 9.02524V9.02197C147.47 9.04779 147.467 9.07401 147.465 9.10106ZM100.185 8.96254C100.184 8.9609 100.185 8.95844 100.184 8.9568L100.181 8.93999C100.182 8.94696 100.184 8.95475 100.185 8.96254ZM150.55 8.96254C150.55 8.9609 150.55 8.95844 150.55 8.9568L150.546 8.93999C150.548 8.94696 150.549 8.95475 150.55 8.96254ZM86.4352 8.94328C86.4348 8.94123 86.4351 8.93918 86.4348 8.93754L86.4312 8.92073C86.4328 8.9277 86.4337 8.93549 86.4352 8.94328ZM143.395 8.94328C143.394 8.94123 143.395 8.93918 143.394 8.93754L143.39 8.92073C143.392 8.9277 143.393 8.93549 143.395 8.94328ZM114.302 8.94041C114.302 8.93918 114.302 8.93836 114.302 8.93754L114.299 8.92073C114.3 8.92688 114.301 8.93344 114.302 8.94041ZM168.286 8.71827C168.306 8.68344 168.327 8.65065 168.35 8.61827H168.349C168.327 8.65024 168.306 8.68385 168.286 8.71827ZM71.967 8.63958C72.0668 8.65557 72.1651 8.67647 72.2616 8.7027L72.1159 8.66745C72.0666 8.65679 72.017 8.64737 71.967 8.63958ZM67.7953 8.64778L67.7881 8.61868C67.7874 8.61622 67.7861 8.61417 67.7853 8.61171C67.7895 8.6236 67.793 8.63548 67.7953 8.64778ZM97.152 8.57974L97.1462 8.55064C97.1446 8.54491 97.1425 8.53876 97.1405 8.53302C97.1458 8.5486 97.1499 8.56417 97.152 8.57974ZM139.784 8.05269L139.782 8.05145L139.667 7.98957C139.671 7.99121 139.717 8.01334 139.784 8.05269ZM96.5708 8.04531C96.5693 8.04449 96.5679 8.04367 96.5664 8.04285L96.4579 7.98957C96.4609 7.99121 96.5054 8.01129 96.5708 8.04531Z" fill="#EDECEB"></path>
<path d="M9.98495 0.000182991C10.4677 -0.00654917 10.9124 0.173546 11.2481 0.363199C12.7452 1.20919 14.599 2.07686 16.0994 3.21649C16.3539 3.40988 16.5576 3.70099 16.6892 3.91331C16.833 4.14561 16.9609 4.39938 17.04 4.60332L17.0474 4.62213L17.0539 4.64094C17.4306 5.7708 17.2666 6.70303 16.8867 7.52304C16.706 7.91366 16.4785 8.27543 16.2588 8.60609C16.0285 8.95315 15.8203 9.24766 15.6154 9.57988C14.9445 10.688 14.3141 11.8205 13.7256 12.9747C11.9858 16.4001 10.93 20.132 10.6177 23.9612L10.6173 23.9648L10.6169 23.9688C10.3366 27.0452 10.5247 28.9855 11.5432 31.9039L11.6669 32.2385C12.9395 35.5675 15.2395 38.4049 18.2326 40.3397L18.5339 40.5302L18.5388 40.5331C18.9679 40.8019 19.4572 41.0958 19.8974 41.3241L20.0831 41.4175L20.3278 41.5327C20.9286 41.8061 21.7343 42.1073 22.5634 42.3594C23.4602 42.6319 24.3262 42.8286 24.9553 42.8831L25.0778 42.8926L25.0889 42.893L25.1004 42.8942C28.4881 43.1872 31.0144 42.6856 34.1042 41.2175C34.285 41.1036 34.4944 40.9864 34.6842 40.8808C34.9046 40.7583 35.1038 40.6485 35.2698 40.5471L35.2719 40.5458C36.2182 39.971 37.1022 39.2975 37.9076 38.5374L37.908 38.5367C41.1802 35.4549 43.1134 31.2132 43.2937 26.722V26.7208C43.3421 25.5601 43.2282 24.0991 43.0855 22.8938C42.6445 19.3499 41.5863 15.9102 39.9592 12.7313L39.9564 12.7249C39.4408 11.6961 38.7924 10.5928 38.1822 9.56988C38.0313 9.31684 37.8649 9.07926 37.6822 8.81782C37.5051 8.56507 37.3092 8.28502 37.1375 7.98772C36.7801 7.37046 36.5051 6.64479 36.5629 5.70719C36.6026 5.0664 36.7649 4.48791 37.078 3.97054C37.3895 3.45618 37.8236 3.04565 38.3441 2.70099L38.3572 2.69218L38.3707 2.68378C38.9023 2.36095 39.4437 2.06453 39.9707 1.77844C40.5027 1.48968 41.0179 1.21305 41.524 0.918328C42.1347 0.562641 42.9023 -0.00477316 44.0093 0.00458561L44.1179 0.00738726L44.3212 0.0157922L44.497 0.118653C44.8298 0.3133 45.1245 0.647974 45.3557 0.947545C45.6044 1.26987 45.8536 1.65088 46.0831 2.02859C46.5421 2.78493 46.9581 3.58921 47.1766 4.00976C47.4209 4.47979 47.3807 4.95955 47.1934 5.35296C47.0233 5.70899 46.7417 5.98351 46.4893 6.18105C46.3471 6.29212 46.1934 6.39302 46.0385 6.48483C46.2479 6.76631 46.4393 7.05156 46.6077 7.30451C49.0766 10.0728 50.9889 13.3475 52.2013 16.9422C54.1132 22.6101 54.1849 28.7652 52.4054 34.4786C50.6262 40.1922 47.0922 45.1549 42.3372 48.6177C37.5822 52.0808 31.8632 53.8563 26.043 53.6772C20.2232 53.4981 14.617 51.3734 10.071 47.6242C5.52503 43.8745 2.28481 38.7033 0.839703 32.8905C-0.605199 27.0777 -0.177078 20.9379 2.05981 15.3977C3.35163 12.1975 5.2074 9.29795 7.51154 6.83303C7.58204 6.73286 7.6554 6.63024 7.72876 6.53085C7.73163 6.52671 7.73491 6.52225 7.73778 6.51807C7.54679 6.39942 7.35908 6.26294 7.19105 6.1074C6.94555 5.88019 6.69718 5.57153 6.57423 5.17566C6.44431 4.75582 6.47833 4.307 6.69186 3.87528C7.22219 2.79236 7.91155 1.71117 8.58041 0.757833C8.93985 0.245669 9.45092 0.00769317 9.98495 0.000182991Z" fill="#272F42"></path>
<path d="M34.498 41.5288C34.8275 41.3152 35.3308 41.0607 35.6989 40.8356C36.6948 40.2307 37.6243 39.5224 38.4714 38.7227C41.8998 35.4938 43.9256 31.0498 44.1146 26.3443C44.1658 25.1184 44.0457 23.6071 43.9015 22.3869C43.449 18.7461 42.3621 15.2129 40.6907 11.9471C40.16 10.8882 39.4973 9.76131 38.8878 8.73957C38.2128 7.60713 37.2927 6.80835 37.3825 5.3471C37.4481 4.28704 37.9067 3.56374 38.7981 2.9738C39.8239 2.35071 40.8985 1.82098 41.9379 1.2159C42.6633 0.793322 43.2162 0.379133 44.0847 0.415614C44.8334 0.853602 46.0113 3.13094 46.4507 3.97719C46.8913 4.82434 45.3539 5.58722 44.7019 5.7835C45.2568 6.2858 45.731 7.06544 46.1568 7.69156C48.1167 10.5744 49.6721 13.6956 50.6823 17.0352C50.859 17.6181 51.0991 18.3471 51.2065 18.9391C52.4434 23.4334 52.4655 28.1757 51.2713 32.6813C50.9385 33.8833 50.6725 34.8283 50.2196 35.9942C48.7048 39.8717 46.274 43.3255 43.1355 46.06C42.756 46.3883 41.3186 47.6412 40.9293 47.794C40.5965 48.101 40.2453 48.3043 39.892 48.5608C38.6014 49.4982 37.369 50.0096 35.8784 50.5687C35.7021 50.6084 35.2079 50.8019 35.012 50.8715C34.3124 51.122 33.6488 51.3703 32.9279 51.549C29.4848 52.431 26.2446 52.574 22.7376 51.931C20.6129 51.5408 19.2559 51.0625 17.2379 50.2887C15.7563 49.7051 14.3112 48.9506 13.0776 47.9322C12.5013 47.5412 11.2816 46.5854 10.8792 46.2415C7.46024 43.3415 4.8684 39.5895 3.36632 35.3654C3.09787 34.6283 2.78229 33.7862 2.61672 33.0235C2.56303 32.9096 2.30892 31.8361 2.26466 31.6419C1.43842 28.0152 1.4921 24.9255 2.07818 21.2742C2.31589 19.9983 2.76508 17.6821 3.27697 16.5171C4.28642 13.3593 5.88931 10.1859 7.78074 7.47672C8.09017 7.03327 8.66641 6.14756 9.06929 5.831L9.02175 5.81448C8.25288 5.54312 6.92868 4.83069 7.42909 3.82621C7.9332 2.79625 8.59592 1.75386 9.2529 0.818134C9.65987 0.238003 10.3013 0.358602 10.846 0.666316C12.4251 1.55831 14.1632 2.36332 15.6051 3.45858C15.8629 3.6545 16.1604 4.18818 16.2776 4.48954C16.8772 6.28842 15.7764 7.35024 14.9194 8.73855C14.2366 9.86578 13.5952 11.0176 12.9964 12.1918C11.2083 15.7124 10.123 19.548 9.80209 23.4838C9.51192 26.6676 9.71028 28.7269 10.773 31.7697C12.1198 35.5303 14.7055 38.7203 18.1051 40.8171C18.6006 41.1271 19.199 41.4861 19.7248 41.7431C21.0543 42.3935 23.5646 43.2132 25.031 43.2997C28.5881 43.6075 31.2668 43.0698 34.498 41.5288Z" fill="#EDECEB"></path>
<mask id="mask0_2027_158" style="mask-type:luminance" maskUnits="userSpaceOnUse" x="1" y="0" width="52" height="53">
<path d="M34.498 41.5288C34.8275 41.3152 35.3308 41.0607 35.6989 40.8356C36.6948 40.2307 37.6243 39.5224 38.4714 38.7227C41.8998 35.4938 43.9256 31.0498 44.1146 26.3443C44.1658 25.1184 44.0457 23.6071 43.9015 22.3869C43.449 18.7461 42.3621 15.2129 40.6907 11.9471C40.16 10.8882 39.4973 9.76131 38.8878 8.73957C38.2128 7.60713 37.2927 6.80835 37.3825 5.3471C37.4481 4.28704 37.9067 3.56374 38.7981 2.9738C39.8239 2.35071 40.8985 1.82098 41.9379 1.2159C42.6633 0.793322 43.2162 0.379133 44.0847 0.415614C44.8334 0.853602 46.0113 3.13094 46.4507 3.97719C46.8913 4.82434 45.3539 5.58722 44.7019 5.7835C45.2568 6.2858 45.731 7.06544 46.1568 7.69156C48.1167 10.5744 49.6721 13.6956 50.6823 17.0352C50.859 17.6181 51.0991 18.3471 51.2065 18.9391C52.4434 23.4334 52.4655 28.1757 51.2713 32.6813C50.9385 33.8833 50.6725 34.8283 50.2196 35.9942C48.7048 39.8717 46.274 43.3255 43.1355 46.06C42.756 46.3883 41.3186 47.6412 40.9293 47.794C40.5965 48.101 40.2453 48.3043 39.892 48.5608C38.6014 49.4982 37.369 50.0096 35.8784 50.5687C35.7021 50.6084 35.2079 50.8019 35.012 50.8715C34.3124 51.122 33.6488 51.3703 32.9279 51.549C29.4848 52.431 26.2446 52.574 22.7376 51.931C20.6129 51.5408 19.2559 51.0625 17.2379 50.2887C15.7563 49.7051 14.3112 48.9506 13.0776 47.9322C12.5013 47.5412 11.2816 46.5854 10.8792 46.2415C7.46024 43.3415 4.8684 39.5895 3.36632 35.3654C3.09787 34.6283 2.78229 33.7862 2.61672 33.0235C2.56303 32.9096 2.30892 31.8361 2.26466 31.6419C1.43842 28.0152 1.4921 24.9255 2.07818 21.2742C2.31589 19.9983 2.76508 17.6821 3.27697 16.5171C4.28642 13.3593 5.88931 10.1859 7.78074 7.47672C8.09017 7.03327 8.66641 6.14756 9.06929 5.831L9.02175 5.81448C8.25288 5.54312 6.92868 4.83069 7.42909 3.82621C7.9332 2.79625 8.59592 1.75386 9.2529 0.818134C9.65987 0.238003 10.3013 0.358602 10.846 0.666316C12.4251 1.55831 14.1632 2.36332 15.6051 3.45858C15.8629 3.6545 16.1604 4.18818 16.2776 4.48954C16.8772 6.28842 15.7764 7.35024 14.9194 8.73855C14.2366 9.86578 13.5952 11.0176 12.9964 12.1918C11.2083 15.7124 10.123 19.548 9.80209 23.4838C9.51192 26.6676 9.71028 28.7269 10.773 31.7697C12.1198 35.5303 14.7055 38.7203 18.1051 40.8171C18.6006 41.1271 19.199 41.4861 19.7248 41.7431C21.0543 42.3935 23.5646 43.2132 25.031 43.2997C28.5881 43.6075 31.2668 43.0698 34.498 41.5288Z" fill="white"></path>
</mask>
<g mask="url(#mask0_2027_158)">
<path d="M34.375 41.3358C34.4586 41.4649 34.5422 41.5936 34.6258 41.7227C34.9983 41.4882 35.4172 41.2849 35.8258 41.0399C36.8381 40.4332 37.7877 39.7185 38.6521 38.9118C40.5997 37.1009 42.1444 34.8552 43.1407 32.3825C43.9137 30.4696 44.3596 28.4232 44.4522 26.3582C44.5075 25.0033 44.4026 23.6717 44.2571 22.3455C43.8194 18.6684 42.7313 15.0687 41.0554 11.762C40.5017 10.6485 39.8779 9.5818 39.2538 8.5233C38.5509 7.37729 37.698 6.49158 37.823 5.37451C37.8623 4.50691 38.3025 3.82056 39.0492 3.34994L39.0341 3.35936C40.0394 2.75385 41.1161 2.22804 42.1739 1.61772C42.8759 1.20172 43.4354 0.838784 44.0674 0.888761L43.8481 0.824448C44.6596 1.51272 45.3785 2.98726 46.0199 4.20281C46.0531 4.28498 46.0563 4.29097 45.9998 4.40622C45.9403 4.51269 45.808 4.64569 45.653 4.76053C45.3424 4.99123 44.9309 5.1923 44.5604 5.30713L43.7169 5.55849L44.3698 6.15313C44.8768 6.62171 45.2858 7.30082 45.7412 7.97644C47.66 10.8163 49.1925 13.9183 50.1712 17.191C50.3621 17.8283 50.5675 18.4495 50.6753 19.0361L50.6863 19.0833C51.8843 23.4626 51.8946 28.1553 50.7187 32.5347L50.7203 32.5286C50.4105 33.647 50.0966 34.7317 49.681 35.7844C48.2035 39.5546 45.8014 42.9563 42.744 45.6088C42.0727 46.1863 41.2259 46.9227 40.712 47.2338L40.5234 47.3514C40.2652 47.5933 39.9226 47.7978 39.5394 48.0728C38.3886 48.9199 37.0672 49.4822 35.6672 49.9999L35.7467 49.9761C35.3307 50.09 35.093 50.1994 34.8102 50.2986C34.1156 50.5474 33.4504 50.7937 32.7836 50.9568L32.7786 50.9581C29.5327 51.8073 26.1425 51.9511 22.851 51.3269C21.6752 51.1138 20.5362 50.8195 19.4083 50.431C18.7595 50.2097 18.112 49.965 17.4603 49.7154L17.4657 49.7175C16.0197 49.1478 14.6402 48.424 13.4705 47.4596L13.4246 47.4252C12.7123 46.9264 11.9565 46.3367 11.2799 45.7764C7.95525 42.9657 5.39455 39.2654 3.93592 35.1641L3.93428 35.1598C3.65272 34.3883 3.36828 33.6337 3.20476 32.8966L3.16131 32.7686C3.19 32.8374 3.16705 32.7816 3.16418 32.7677C3.15804 32.7466 3.15025 32.7199 3.14328 32.6945C3.12894 32.6423 3.11418 32.5871 3.09943 32.5314C3.07074 32.4201 3.04205 32.3065 3.01377 32.1928C2.95762 31.9659 2.90106 31.732 2.84942 31.5095C2.05514 28.1893 2.09039 24.7577 2.65516 21.3669L2.6527 21.3813C2.95557 19.796 3.24779 18.1399 3.80354 16.7478L3.82485 16.6918C4.8347 13.5354 6.34538 10.5239 8.23394 7.79185C8.62698 7.22286 9.03765 6.58363 9.40774 6.25957L10.1918 5.64644L9.25035 5.31713C9.23437 5.31168 9.21839 5.30623 9.2024 5.30074C8.40362 5.03951 7.61508 4.40548 7.91181 4.06587C8.40936 3.04599 9.02658 2.06929 9.68643 1.12118C9.7934 0.97702 9.86061 0.94163 10.0102 0.933835C10.161 0.929643 10.3832 1.0023 10.5918 1.12087C12.2213 2.03345 13.8886 2.79666 15.3025 3.86073C15.4423 3.96773 15.6988 4.38142 15.8136 4.67118L15.8054 4.64823C16.3382 5.96087 15.3886 7.12163 14.5095 8.48453C13.8226 9.62758 13.1795 10.7921 12.5799 11.9786C10.7807 15.5492 9.68848 19.47 9.38232 23.4498C9.07494 26.2609 9.3979 29.2414 10.411 31.8973C11.7848 35.7061 14.4882 39.0049 17.9358 41.096C18.4681 41.4243 19.0087 41.7468 19.5874 42.0288C20.387 42.4087 21.2047 42.701 22.0358 42.9604C23.001 43.251 23.9727 43.5145 25.0162 43.587L25.0084 43.5862C28.2917 43.919 31.6762 43.2223 34.5996 41.7374C34.5336 41.5985 34.4672 41.4599 34.4012 41.321C31.4975 42.746 28.265 43.3698 25.058 43.0141L25.0502 43.0137C24.1105 42.9395 23.1494 42.6747 22.2182 42.3813C21.4137 42.1214 20.6124 41.8235 19.8665 41.4587C19.3292 41.1903 18.8022 40.8691 18.2813 40.5402C14.9783 38.4894 12.418 35.2945 11.1385 31.6401C10.1791 29.0266 9.90815 26.2918 10.2258 23.5226C10.5569 19.6508 11.6484 15.8533 13.4181 12.4052C14.0156 11.2442 14.6558 10.1046 15.3361 8.99003C15.7222 8.36071 16.2267 7.75115 16.5988 6.9647C16.9894 6.18793 17.0534 5.15648 16.7546 4.33179L16.7464 4.30884C16.5382 3.84323 16.3997 3.49593 15.9128 3.05733C14.382 1.89395 12.6783 1.10945 11.1049 0.212663C10.7987 0.0425241 10.4479 -0.111923 10.0012 -0.114499C9.55159 -0.131999 9.04707 0.165196 8.82412 0.515992C8.13804 1.49004 7.48967 2.49962 6.94909 3.59074C6.79171 3.88796 6.72531 4.32425 6.84867 4.68942C6.96589 5.05483 7.18884 5.31279 7.40811 5.51415C7.85771 5.91141 8.33763 6.14219 8.84297 6.32822C8.86141 6.33465 8.87699 6.34018 8.89297 6.34576L8.73518 5.40332C8.05607 6.00965 7.74295 6.59548 7.33229 7.16245C5.36627 9.97877 3.7978 13.0667 2.73426 16.3432L2.75557 16.2872C2.09367 17.9408 1.83055 19.5459 1.50883 21.1681L1.50636 21.1825C0.912911 24.6468 0.859634 28.3086 1.68424 31.7751C1.73916 32.0141 1.79408 32.2443 1.85145 32.4791C1.88014 32.5961 1.90924 32.7133 1.93998 32.8323C1.95556 32.892 1.97113 32.9519 1.98834 33.0142C1.99695 33.0447 2.00637 33.0781 2.01621 33.1116C2.03097 33.1556 2.02482 33.1584 2.07687 33.2794L2.03342 33.1513C2.22523 34.0176 2.52524 34.8026 2.8027 35.5718L2.80106 35.5676C4.32076 39.8712 7.00114 43.7583 10.4856 46.7092C11.2291 47.3248 11.9348 47.8785 12.7353 48.4404L12.6889 48.406C13.9927 49.4814 15.4874 50.2585 17.0152 50.8613L17.0202 50.8634C17.6763 51.1146 18.3362 51.3642 19.0116 51.595C20.185 51.9999 21.4079 52.315 22.6293 52.5355C26.0773 53.1913 29.6978 53.0335 33.0815 52.1405L33.0766 52.1417C33.8303 51.9552 34.5381 51.6896 35.2197 51.445C35.5115 51.3388 35.8406 51.2097 36.0148 51.1622L36.0939 51.1384C37.5041 50.615 38.9771 49.9917 40.2493 49.0502C40.5624 48.8203 40.9661 48.5834 41.3403 48.2375L41.1517 48.3551C42.2526 47.7183 42.7743 47.1391 43.5296 46.5137C46.7272 43.726 49.2314 40.1562 50.7626 36.2058C51.1958 35.0982 51.522 33.9516 51.8265 32.8349L51.8282 32.8288C53.0384 28.2495 53.0036 23.3523 51.7314 18.7957L51.7421 18.8429C51.606 18.1339 51.3876 17.503 51.1986 16.8802C50.1671 13.4982 48.5654 10.3094 46.5777 7.40762C46.1309 6.76241 45.7141 6.0403 45.0383 5.41476L44.8477 6.26076C45.3649 6.0926 45.8067 5.87346 46.2473 5.54796C46.4633 5.38074 46.6818 5.18943 46.8551 4.88815C47.0383 4.60265 47.0846 4.0846 46.8867 3.75237C46.158 2.47582 45.7174 1.18435 44.326 0.0076758L44.1071 -0.0566375C43.1428 -0.121694 42.3214 0.450716 41.7063 0.815009C40.6907 1.4122 39.6124 1.94875 38.5664 2.58914L38.5517 2.59855C37.6595 3.13459 36.9554 4.2481 36.9467 5.32049C36.8082 6.85388 37.9476 7.98624 38.5267 8.95679C39.1578 10.0058 39.782 11.0542 40.3292 12.13C41.9919 15.3405 43.0878 18.8428 43.5505 22.4312C43.7067 23.7282 43.8215 25.0422 43.7813 26.3307C43.7124 28.3215 43.3038 30.3007 42.5764 32.1583C41.639 34.5592 40.1681 36.7528 38.2959 38.5343C37.4672 39.3261 36.5545 40.0305 35.5775 40.6319C35.1955 40.868 34.7824 41.0735 34.375 41.3358ZM34.6258 41.7227L34.375 41.3358L34.4012 41.321L34.5996 41.7374L34.6258 41.7227Z" fill="#272F42"></path>
</g>
<path d="M7.375 5.32655C7.46762 5.40061 7.56107 5.47274 7.65493 5.54291C8.49961 6.17452 9.39717 6.64862 10.3472 6.96527C10.7263 7.09158 11.1136 7.19285 11.5091 7.26904L11.1656 6.60711C11.0689 7.2065 11.0296 7.82311 11.0476 8.45693C11.0509 8.57411 11.0562 8.69186 11.0636 8.81022C11.1349 8.71542 11.2042 8.62005 11.2714 8.52407C11.6357 8.00492 11.9423 7.46851 12.1915 6.9149C12.2382 6.62485 12.1361 6.30854 11.8476 6.25296C11.4857 6.07652 11.1148 5.92517 10.7361 5.79885C9.78611 5.48217 8.78363 5.32299 7.7287 5.32131C7.61148 5.3211 7.49344 5.32286 7.375 5.32655Z" fill="#272F42"></path>
<path d="M46.1083 5.32649C46.0149 5.40088 45.9219 5.47293 45.8284 5.54289C44.9833 6.17454 44.0866 6.64848 43.1366 6.96521C42.7575 7.09144 42.3706 7.19263 41.9743 7.26899L42.3181 6.60705C42.4148 7.20645 42.4542 7.82305 42.4357 8.45688C42.4325 8.57405 42.4271 8.6918 42.4198 8.81016C42.3484 8.71537 42.2792 8.61999 42.212 8.52401C41.848 8.00486 41.5415 7.46846 41.2923 6.91484C41.2451 6.6248 41.3472 6.30848 41.6357 6.2529C41.9984 6.0763 42.3689 5.92503 42.7476 5.79876C43.6976 5.48207 44.6997 5.32305 45.7546 5.32129C45.8715 5.32129 45.9891 5.32313 46.1083 5.32649Z" fill="#272F42"></path>
<path d="M15.7344 49.376L17.6295 50.1276" stroke="#272F42" stroke-width="0.163937"></path>
<path d="M42.2517 42.2123C41.9407 42.5345 41.6157 42.8517 41.2751 43.1628L40.0156 41.525C40.3349 41.2894 40.6423 41.0472 40.9386 40.7984L42.2517 42.2123ZM46.4731 35.7074C45.6833 37.6652 44.5764 39.5536 43.0817 41.2996L41.8521 39.9759C43.3296 38.5559 44.4776 36.9695 45.3497 35.2795L46.4731 35.7074ZM47.0707 34.0236C47.0157 34.2008 46.9588 34.3775 46.8993 34.5539L45.8788 34.1652C45.9424 34.0193 46.0043 33.8729 46.0641 33.7258L47.0707 34.0236ZM48.1092 26.3282C48.1465 28.4794 47.9375 30.6802 47.4002 32.8389L46.4924 32.5699C47.1752 30.5401 47.5338 28.4234 47.6506 26.3126L48.1092 26.3282ZM47.9904 24.1601C48.019 24.4704 48.0424 24.7826 48.0613 25.0963L47.692 25.0838C47.6961 24.7778 47.6949 24.4722 47.6895 24.1673L47.9904 24.1601ZM47.3985 20.3643C47.5809 21.196 47.7338 22.0548 47.851 22.9334L47.6432 22.9382C47.594 22.0699 47.5108 21.2098 47.3985 20.3643Z" fill="#272F42" stroke="#272F42" stroke-width="1.22953"></path>
<path d="M11.3929 42.2123C11.704 42.5345 12.029 42.8517 12.3696 43.1628L13.629 41.525C13.3098 41.2894 13.0024 41.0472 12.7061 40.7984L11.3929 42.2123ZM7.17155 35.7074C7.96131 37.6652 9.0683 39.5536 10.563 41.2996L11.7925 39.9759C10.315 38.5559 9.16707 36.9695 8.29493 35.2795L7.17155 35.7074ZM6.574 34.0236C6.62891 34.2008 6.68588 34.3775 6.74531 34.5539L7.76582 34.1652C7.70229 34.0193 7.6404 33.8729 7.58057 33.7258L6.574 34.0236ZM5.53545 26.3282C5.49815 28.4794 5.70718 30.6802 6.24407 32.8389L7.15228 32.5699C6.46948 30.5401 6.11087 28.4234 5.99407 26.3126L5.53545 26.3282ZM5.65431 24.1601C5.62562 24.4704 5.60226 24.7826 5.5834 25.0963L5.95267 25.0838C5.94857 24.7778 5.9498 24.4722 5.95513 24.1673L5.65431 24.1601ZM6.24612 20.3643C6.06374 21.196 5.91087 22.0548 5.79365 22.9334L6.00144 22.9382C6.05062 22.0699 6.13382 21.2098 6.24612 20.3643Z" fill="#272F42" stroke="#272F42" stroke-width="1.22953"></path>
<path d="M14.3438 49.9998C17.2893 49.3223 18.5463 48.7108 20.2455 47.1309C23.8234 49.2227 30.1813 49.3891 33.3605 47.1309C35.3429 48.6825 36.6515 49.5682 38.9343 49.9998" stroke="#272F42" stroke-width="1.22953"></path>
<path d="M40.3736 48.3613C37.6104 48.3109 35.8653 48.156 33.4062 46.5166L38.3244 50.2052L40.3736 48.3613Z" fill="#272F42"></path>
<path d="M13.5234 48.1564C16.287 48.106 17.6219 48.156 20.0809 46.5166L15.7776 50.2052L13.5234 48.1564Z" fill="#272F42"></path>
<path d="M26.8469 39.7544C34.4297 39.7544 40.5767 33.6074 40.5767 26.0247C40.5767 18.4419 34.4297 12.2949 26.8469 12.2949C19.2642 12.2949 13.1172 18.4419 13.1172 26.0247C13.1172 33.6074 19.2642 39.7544 26.8469 39.7544Z" fill="#272F42"></path>
<path d="M26.8422 37.4998C33.6327 37.4998 39.1375 31.995 39.1375 25.2045C39.1375 18.414 33.6327 12.9092 26.8422 12.9092C20.0517 12.9092 14.5469 18.414 14.5469 25.2045C14.5469 31.995 20.0517 37.4998 26.8422 37.4998Z" fill="#EDECEB" stroke="#272F42" stroke-width="1.22953"></path>
<path d="M26.8423 34.6318C32.1615 34.6318 36.4736 30.3197 36.4736 25.0005C36.4736 19.6812 32.1615 15.3691 26.8423 15.3691C21.523 15.3691 17.2109 19.6812 17.2109 25.0005C17.2109 30.3197 21.523 34.6318 26.8423 34.6318Z" fill="#EDECEB" stroke="#272F42" stroke-width="1.22953"></path>
<path d="M19.4566 21.7046C19.3361 22.3299 19.2637 23.0514 19.2637 23.821C19.2637 24.6868 19.3602 25.5767 19.5289 26.4185C19.8424 27.8856 20.6379 29.521 21.2165 30.435C22.422 32.3109 24.8087 33.6577 27.316 33.6577C27.7981 33.6577 28.2803 33.6096 28.7625 33.5134C31.7278 32.8641 33.8976 30.3387 34.3074 27.6451C34.4038 27.116 34.4521 26.3704 34.4521 25.6008C34.4521 24.8311 34.3797 23.9894 34.2351 23.2678C33.8976 21.6805 33.2466 20.0691 32.3546 18.9147C31.0046 17.183 28.7866 15.9564 26.424 15.9564C25.9418 15.9564 25.4596 16.0045 24.9774 16.1007C22.1085 16.7261 19.9629 19.1792 19.4566 21.7046ZM16.9976 26.9236C16.8529 26.2742 16.8047 25.6008 16.8047 24.9754C16.8047 20.0451 20.6379 15.8602 24.664 14.9944C25.3873 14.8261 26.0864 14.7539 26.8097 14.7539C31.4385 14.7539 35.6334 17.9526 36.6459 22.6425C36.8147 23.364 36.887 24.0856 36.887 24.783C36.887 29.4008 33.6806 33.5615 28.9794 34.5717C28.1357 34.7641 27.316 34.8362 26.4963 34.8362C22.0121 34.8362 18.0583 32.1185 16.9976 26.9236Z" fill="#272F42"></path>
</svg>