<svg xmlns="http://www.w3.org/2000/svg" width="540.787" height="153.660" viewBox="0 0 540.787 153.660" fill="none">
  <path d="M 403.447 78.414 C 403.445 78.414 403.445 78.415 403.443 78.415 C 403.438 78.419 403.432 78.424 403.422 78.43 C 403.404 78.443 403.373 78.461 403.335 78.488 C 403.26 78.54 403.148 78.62 403.014 78.724 C 402.743 78.93 402.379 79.232 402.009 79.602 C 401.248 80.363 400.547 81.33 400.415 82.343 L 400.417 82.345 C 399.804 87.793 399.725 95.411 399.725 108.266 C 399.725 114.258 399.804 120.399 399.978 125.369 C 400.065 127.855 400.173 130.042 400.31 131.766 C 400.429 133.271 400.566 134.379 400.71 135.03 C 400.742 135.04 400.778 135.053 400.82 135.065 C 401.025 135.116 401.302 135.161 401.653 135.204 C 402.352 135.288 403.281 135.345 404.363 135.383 C 406.525 135.46 409.239 135.46 411.834 135.46 C 414.273 135.46 416.95 135.46 419.111 135.383 C 420.193 135.345 421.134 135.288 421.842 135.204 C 422.198 135.161 422.482 135.116 422.69 135.065 C 422.723 135.057 422.75 135.045 422.777 135.037 C 422.88 134.409 422.993 133.338 423.093 131.893 C 423.213 130.186 423.319 128.004 423.411 125.514 C 423.595 120.532 423.711 114.331 423.711 108.266 C 423.711 95.365 423.249 86.871 422.939 82.24 L 422.914 81.984 C 422.751 80.725 422.085 79.871 421.421 79.311 C 421.064 79.011 420.713 78.799 420.452 78.665 C 420.323 78.597 420.216 78.548 420.144 78.519 C 420.109 78.504 420.082 78.493 420.065 78.486 C 420.059 78.483 420.052 78.483 420.05 78.481 L 420.267 77.206 L 434.966 77.206 L 434.966 78.519 C 435.087 78.519 435.177 78.483 435.179 78.481 C 435.203 78.473 435.22 78.465 435.226 78.463 L 435.172 78.497 C 435.1 78.543 434.992 78.617 434.861 78.717 C 434.597 78.915 434.246 79.206 433.885 79.57 C 433.151 80.314 432.451 81.296 432.288 82.37 C 431.677 86.96 431.6 95.413 431.6 108.266 C 431.6 114.253 431.734 120.702 431.966 125.894 C 432.082 128.491 432.221 130.766 432.379 132.509 C 432.457 133.381 432.541 134.114 432.628 134.683 C 432.67 134.97 432.715 135.201 432.754 135.383 L 440.569 135.383 L 440.572 136.037 L 440.649 153.519 L 439.353 153.66 L 439.353 153.659 C 439.353 153.657 439.351 153.655 439.351 153.652 C 439.349 153.646 439.348 153.636 439.344 153.623 C 439.34 153.596 439.33 153.557 439.318 153.505 C 439.294 153.4 439.256 153.246 439.205 153.049 C 439.103 152.652 438.946 152.083 438.73 151.4 C 438.297 150.031 437.63 148.211 436.685 146.4 C 434.769 142.721 431.859 139.326 427.693 139.326 L 388.471 139.326 L 388.263 138.047 C 388.266 138.047 388.271 138.044 388.279 138.04 C 388.294 138.035 388.32 138.025 388.354 138.012 C 388.422 137.984 388.525 137.939 388.649 137.876 C 388.902 137.748 389.241 137.547 389.587 137.258 C 390.271 136.683 390.966 135.771 391.066 134.366 C 391.374 129.502 391.838 120.391 391.838 108.266 C 391.838 95.362 391.451 86.867 391.143 82.24 C 391.043 80.84 390.331 79.909 389.623 79.311 C 389.268 79.011 388.917 78.799 388.656 78.665 C 388.527 78.596 388.42 78.548 388.349 78.519 C 388.313 78.504 388.287 78.493 388.271 78.486 C 388.263 78.483 388.258 78.483 388.254 78.481 L 388.253 78.479 L 388.471 77.206 L 405.33 77.206 L 403.447 78.414 Z M 182.579 74.888 C 197.731 74.888 211.469 85.383 214.785 100.78 C 215.338 103.151 215.572 105.518 215.572 107.803 C 215.572 122.955 205.078 136.609 189.686 139.929 L 189.688 139.93 C 186.924 140.562 184.243 140.798 181.574 140.798 C 166.89 140.798 153.919 131.853 150.45 114.82 L 150.451 114.818 C 149.976 112.672 149.817 110.461 149.817 108.423 C 149.817 92.249 162.338 78.532 175.545 75.678 C 177.919 75.124 180.214 74.888 182.579 74.888 Z M 95.396 77.019 L 95.396 77.02 L 95.394 77.022 C 95.393 77.024 95.393 77.025 95.392 77.03 C 95.391 77.037 95.388 77.048 95.384 77.061 C 95.377 77.089 95.368 77.13 95.355 77.184 C 95.329 77.292 95.292 77.452 95.245 77.652 C 95.151 78.053 95.021 78.622 94.877 79.284 C 94.589 80.607 94.244 82.302 94.015 83.824 C 93.787 85.768 93.654 88.435 93.577 90.627 C 93.538 91.721 93.513 92.693 93.498 93.39 C 93.491 93.739 93.487 94.018 93.484 94.211 C 93.482 94.308 93.481 94.383 93.481 94.434 C 93.48 94.459 93.481 94.477 93.481 94.49 C 93.481 94.496 93.479 94.501 93.479 94.504 L 93.479 94.509 L 92.184 94.647 L 92.184 94.645 C 92.184 94.644 92.183 94.641 92.182 94.639 C 92.181 94.632 92.179 94.623 92.176 94.611 C 92.17 94.586 92.162 94.549 92.15 94.501 C 92.126 94.403 92.088 94.255 92.037 94.068 C 91.935 93.695 91.78 93.155 91.564 92.509 C 91.132 91.214 90.465 89.491 89.523 87.776 C 87.615 84.304 84.708 81.076 80.524 81.076 L 64.341 81.076 C 63.968 85.54 63.48 94.437 63.392 106.297 L 74.407 106.223 C 77.544 106.147 79.405 105.156 80.473 104.236 C 81.012 103.772 81.36 103.316 81.571 102.983 C 81.677 102.816 81.747 102.68 81.79 102.59 C 81.812 102.546 81.827 102.515 81.835 102.495 L 81.842 102.475 L 81.842 102.477 L 83.113 102.703 L 83.113 113.843 L 81.854 114.097 C 81.853 114.094 81.85 114.087 81.845 114.077 C 81.835 114.056 81.818 114.023 81.794 113.977 C 81.745 113.885 81.665 113.748 81.55 113.577 C 81.321 113.238 80.95 112.774 80.396 112.3 C 79.366 111.42 77.676 110.479 75.01 110.274 L 74.464 110.243 L 63.39 110.243 C 63.478 123.428 64.026 131.697 64.341 135.622 L 80.594 135.622 C 84.737 135.586 87.628 132.307 89.529 128.781 C 90.468 127.042 91.133 125.297 91.564 123.986 C 91.779 123.332 91.935 122.787 92.037 122.407 C 92.087 122.218 92.124 122.069 92.149 121.971 C 92.161 121.92 92.17 121.881 92.176 121.856 C 92.179 121.845 92.181 121.835 92.182 121.83 C 92.183 121.827 92.184 121.825 92.184 121.825 L 93.479 121.958 L 93.479 121.963 C 93.479 121.966 93.481 121.971 93.481 121.977 C 93.481 121.989 93.48 122.009 93.481 122.035 C 93.481 122.086 93.482 122.161 93.484 122.258 C 93.487 122.453 93.491 122.736 93.498 123.087 C 93.513 123.791 93.538 124.769 93.577 125.869 C 93.654 128.073 93.788 130.737 94.017 132.64 C 94.246 134.163 94.589 135.88 94.877 137.222 C 95.021 137.896 95.151 138.473 95.245 138.881 C 95.292 139.085 95.329 139.247 95.355 139.358 C 95.368 139.414 95.379 139.457 95.386 139.485 C 95.389 139.499 95.392 139.511 95.394 139.519 C 95.395 139.522 95.395 139.526 95.396 139.527 L 95.396 139.529 L 95.629 140.499 L 94.645 140.327 L 94.641 140.327 C 94.639 140.327 94.635 140.326 94.63 140.326 C 94.62 140.324 94.605 140.321 94.584 140.317 C 94.542 140.311 94.477 140.299 94.393 140.285 C 94.225 140.258 93.974 140.221 93.647 140.173 C 92.994 140.08 92.037 139.955 90.833 139.83 C 88.423 139.581 85.022 139.33 81.065 139.33 L 49.318 139.33 L 51.5 138.104 C 51.501 138.104 51.502 138.103 51.503 138.101 C 51.507 138.099 51.513 138.096 51.521 138.093 C 51.537 138.083 51.561 138.07 51.593 138.05 C 51.656 138.012 51.747 137.957 51.859 137.886 C 52.083 137.742 52.384 137.535 52.691 137.291 C 53 137.047 53.302 136.771 53.54 136.489 C 53.771 136.216 53.905 135.975 53.956 135.778 C 54.265 131.976 54.803 123.264 54.803 108.116 C 54.803 94.613 54.186 84.891 53.801 80.494 L 53.77 80.358 C 53.725 80.214 53.63 80.045 53.472 79.855 C 53.266 79.607 52.987 79.368 52.693 79.153 C 52.401 78.942 52.111 78.766 51.892 78.645 C 51.784 78.584 51.694 78.537 51.633 78.506 C 51.602 78.489 51.578 78.479 51.562 78.471 L 51.543 78.463 L 51.822 77.214 L 81.065 77.214 C 85.022 77.214 88.423 76.963 90.833 76.714 C 92.037 76.589 92.994 76.465 93.647 76.371 C 93.974 76.325 94.225 76.286 94.393 76.26 C 94.478 76.247 94.542 76.235 94.584 76.227 C 94.605 76.224 94.62 76.22 94.63 76.219 C 94.635 76.219 94.639 76.219 94.641 76.217 L 94.645 76.217 L 95.634 76.043 L 95.396 77.019 Z M 490.521 77.019 L 490.521 77.02 L 490.52 77.022 C 490.52 77.024 490.52 77.025 490.518 77.03 C 490.517 77.037 490.513 77.048 490.51 77.061 C 490.503 77.089 490.494 77.13 490.482 77.184 C 490.456 77.292 490.418 77.452 490.371 77.652 C 490.277 78.053 490.148 78.622 490.003 79.284 C 489.715 80.607 489.371 82.302 489.141 83.824 C 488.913 85.768 488.78 88.435 488.703 90.627 C 488.664 91.721 488.639 92.693 488.625 93.39 C 488.616 93.739 488.613 94.018 488.61 94.211 C 488.608 94.308 488.607 94.383 488.607 94.434 C 488.607 94.459 488.607 94.477 488.607 94.49 C 488.607 94.496 488.605 94.501 488.605 94.504 L 488.605 94.509 L 487.31 94.647 L 487.31 94.645 C 487.31 94.644 487.308 94.641 487.308 94.639 C 487.307 94.632 487.305 94.623 487.302 94.611 C 487.297 94.586 487.289 94.549 487.275 94.501 C 487.252 94.403 487.213 94.255 487.162 94.068 C 487.061 93.695 486.907 93.155 486.69 92.509 C 486.259 91.214 485.592 89.491 484.649 87.776 C 482.741 84.304 479.834 81.076 475.65 81.076 L 459.468 81.076 C 459.094 85.54 458.606 94.437 458.519 106.297 L 469.532 106.223 C 472.67 106.147 474.531 105.156 475.598 104.236 C 476.137 103.772 476.487 103.316 476.696 102.983 C 476.803 102.816 476.873 102.68 476.916 102.59 C 476.937 102.546 476.952 102.515 476.962 102.495 L 476.967 102.475 L 476.967 102.477 L 478.239 102.703 L 478.239 113.843 L 476.98 114.097 C 476.978 114.094 476.975 114.087 476.97 114.077 C 476.96 114.056 476.944 114.023 476.919 113.977 C 476.87 113.885 476.792 113.748 476.677 113.577 C 476.447 113.238 476.075 112.774 475.523 112.3 C 474.493 111.42 472.801 110.479 470.136 110.274 L 469.59 110.243 L 458.517 110.243 C 458.604 123.428 459.152 131.697 459.468 135.622 L 475.721 135.622 C 479.862 135.586 482.754 132.307 484.656 128.781 C 485.593 127.042 486.259 125.297 486.69 123.986 C 486.905 123.332 487.061 122.787 487.162 122.407 C 487.213 122.218 487.251 122.069 487.275 121.971 C 487.287 121.92 487.297 121.881 487.302 121.856 C 487.305 121.845 487.307 121.835 487.308 121.83 C 487.308 121.827 487.31 121.825 487.31 121.825 L 488.605 121.958 L 488.605 121.963 C 488.605 121.966 488.607 121.971 488.607 121.977 C 488.607 121.989 488.607 122.009 488.607 122.035 C 488.607 122.086 488.608 122.161 488.61 122.258 C 488.613 122.453 488.616 122.736 488.625 123.087 C 488.639 123.791 488.664 124.769 488.703 125.869 C 488.78 128.073 488.915 130.737 489.143 132.64 C 489.372 134.163 489.715 135.88 490.003 137.222 C 490.148 137.896 490.277 138.473 490.371 138.881 C 490.418 139.085 490.456 139.247 490.482 139.358 C 490.494 139.414 490.505 139.457 490.512 139.485 C 490.515 139.499 490.518 139.511 490.52 139.519 C 490.52 139.522 490.521 139.526 490.521 139.527 L 490.521 139.529 L 490.756 140.499 L 489.771 140.327 L 489.767 140.327 C 489.766 140.327 489.761 140.326 489.756 140.326 C 489.746 140.324 489.731 140.321 489.71 140.317 C 489.667 140.311 489.603 140.299 489.52 140.285 C 489.351 140.258 489.1 140.221 488.774 140.173 C 488.12 140.08 487.162 139.955 485.959 139.83 C 483.549 139.581 480.149 139.33 476.191 139.33 L 444.445 139.33 L 446.627 138.104 C 446.627 138.104 446.628 138.103 446.63 138.101 C 446.633 138.099 446.64 138.096 446.646 138.093 C 446.663 138.083 446.687 138.07 446.718 138.05 C 446.782 138.012 446.873 137.957 446.984 137.886 C 447.209 137.742 447.51 137.535 447.817 137.291 C 448.127 137.047 448.428 136.771 448.666 136.489 C 448.897 136.216 449.03 135.975 449.082 135.778 C 449.391 131.976 449.928 123.264 449.928 108.116 C 449.928 94.613 449.312 84.891 448.927 80.494 L 448.896 80.358 C 448.851 80.214 448.756 80.045 448.599 79.855 C 448.392 79.607 448.114 79.368 447.819 79.153 C 447.527 78.942 447.237 78.766 447.018 78.645 C 446.91 78.584 446.82 78.537 446.759 78.506 C 446.728 78.489 446.704 78.479 446.689 78.471 L 446.669 78.463 L 446.948 77.214 L 476.191 77.214 C 480.149 77.214 483.549 76.963 485.959 76.714 C 487.162 76.589 488.12 76.465 488.774 76.371 C 489.1 76.325 489.351 76.286 489.52 76.26 C 489.603 76.247 489.667 76.235 489.71 76.227 C 489.731 76.224 489.746 76.22 489.756 76.219 C 489.761 76.219 489.766 76.219 489.767 76.217 L 489.771 76.217 L 490.759 76.043 L 490.521 77.019 Z M 41.521 77.324 C 41.521 77.325 41.52 77.33 41.52 77.333 C 41.518 77.34 41.515 77.352 41.512 77.366 C 41.505 77.394 41.494 77.437 41.481 77.493 C 41.455 77.602 41.418 77.765 41.372 77.968 C 41.28 78.376 41.153 78.952 41.014 79.625 C 40.735 80.973 40.41 82.693 40.22 84.214 L 40.218 84.224 C 39.953 86.121 39.818 88.758 39.751 90.942 C 39.717 92.029 39.7 92.996 39.691 93.693 C 39.687 94.041 39.684 94.319 39.683 94.513 L 39.683 94.809 L 38.386 94.95 L 38.386 94.949 C 38.386 94.947 38.385 94.947 38.385 94.944 C 38.384 94.939 38.381 94.927 38.379 94.916 C 38.373 94.89 38.363 94.854 38.351 94.803 C 38.327 94.703 38.29 94.554 38.239 94.364 C 38.137 93.982 37.981 93.434 37.765 92.777 C 37.333 91.459 36.665 89.708 35.722 87.963 C 33.812 84.429 30.905 81.152 26.727 81.152 L 14.185 81.152 C 13.87 85.429 13.318 94.168 13.229 105.915 L 28.741 105.99 C 37.995 105.99 45.485 113.399 45.485 122.661 C 45.485 131.919 37.996 139.406 28.737 139.406 L 0 139.406 L 1.119 138.288 C 1.189 138.217 1.264 138.176 1.27 138.173 C 1.293 138.16 1.315 138.148 1.33 138.14 C 1.362 138.124 1.401 138.107 1.436 138.091 C 1.511 138.055 1.605 138.012 1.716 137.958 C 1.938 137.847 2.221 137.694 2.504 137.498 C 3.095 137.086 3.561 136.568 3.641 135.958 L 3.642 135.942 C 4.175 132.519 4.641 122.82 4.641 108.425 C 4.641 94.709 3.949 84.762 3.639 80.498 C 3.558 79.984 3.098 79.491 2.485 79.079 C 2.195 78.884 1.908 78.732 1.692 78.629 C 1.585 78.578 1.496 78.54 1.436 78.515 C 1.407 78.502 1.385 78.494 1.37 78.488 C 1.363 78.484 1.357 78.483 1.354 78.481 L 1.353 78.479 L 1.583 77.211 L 27.255 77.211 C 31.266 77.133 34.661 76.96 37.051 76.806 C 38.246 76.729 39.19 76.656 39.834 76.604 C 40.156 76.578 40.404 76.556 40.57 76.542 C 40.653 76.533 40.716 76.527 40.757 76.524 C 40.778 76.522 40.795 76.52 40.806 76.519 C 40.81 76.519 40.814 76.519 40.817 76.519 L 40.82 76.517 L 41.736 76.429 L 41.521 77.324 Z M 287.891 78.456 L 287.773 78.515 C 287.691 78.558 287.571 78.624 287.425 78.709 C 287.133 78.881 286.743 79.135 286.351 79.46 C 285.545 80.129 284.85 81.001 284.789 82.002 L 284.75 82.619 L 284.668 82.619 C 284.292 87.676 283.861 96.608 283.861 108.11 C 283.861 117.597 284.151 124.714 284.428 129.66 C 287.507 124.341 291.624 116.695 296.23 107.207 L 297.845 103.852 C 301.486 96.252 304.255 90.236 306.173 85.894 C 307.268 83.412 308.083 81.483 308.624 80.117 C 308.895 79.435 309.093 78.901 309.224 78.512 C 309.29 78.317 309.337 78.166 309.365 78.056 L 309.395 77.938 L 309.395 77.206 L 322.97 77.206 L 323.285 78.437 L 323.282 78.438 C 323.279 78.44 323.27 78.443 323.262 78.45 C 323.243 78.46 323.211 78.479 323.174 78.502 C 323.097 78.548 322.982 78.619 322.844 78.712 C 322.566 78.899 322.188 79.173 321.802 79.52 C 321.008 80.23 320.249 81.173 320.057 82.234 L 320.056 82.237 C 319.833 83.421 319.623 86.176 319.467 89.939 C 319.313 93.68 319.216 98.37 319.216 103.392 L 319.216 108.103 L 319.293 112.905 C 319.388 117.672 319.531 122.256 319.66 125.94 C 319.747 128.394 319.829 130.447 319.89 131.886 C 319.92 132.607 319.944 133.173 319.962 133.56 C 319.97 133.752 319.977 133.901 319.982 133.999 C 319.983 134.05 319.987 134.088 319.988 134.114 C 319.988 134.122 319.987 134.129 319.988 134.135 C 320.085 135.152 320.833 136.124 321.682 136.898 C 322.093 137.273 322.5 137.578 322.805 137.786 C 322.957 137.891 323.084 137.97 323.169 138.024 C 323.211 138.05 323.243 138.07 323.266 138.083 C 323.275 138.089 323.284 138.094 323.288 138.098 C 323.29 138.098 323.293 138.098 323.293 138.098 L 325.452 139.326 L 306.801 139.326 L 306.577 138.053 L 306.578 138.052 C 306.581 138.05 306.59 138.048 306.599 138.044 C 306.617 138.037 306.649 138.024 306.688 138.007 C 306.77 137.973 306.89 137.917 307.036 137.842 C 307.329 137.691 307.721 137.457 308.118 137.135 C 308.914 136.488 309.685 135.517 309.783 134.137 L 309.783 134.129 C 310.168 129.507 310.631 121.015 310.631 108.11 C 310.631 99.375 310.347 92.203 310.073 87.022 L 285.099 138.816 L 285.099 139.406 L 284.44 139.401 L 271.443 139.326 L 271.23 138.062 L 271.225 138.052 C 271.226 138.052 271.226 138.052 271.228 138.05 L 271.249 138.042 C 271.269 138.035 271.3 138.022 271.343 138.006 C 271.425 137.971 271.548 137.914 271.697 137.839 C 271.998 137.688 272.4 137.455 272.807 137.132 C 273.623 136.483 274.407 135.512 274.505 134.137 L 274.505 134.129 C 274.89 129.51 275.277 121.02 275.277 108.11 C 275.277 95.98 274.815 86.868 274.428 82.014 L 274.428 82.009 C 274.33 80.634 273.587 79.768 272.833 79.225 C 272.454 78.953 272.079 78.768 271.797 78.652 C 271.657 78.593 271.543 78.553 271.466 78.529 C 271.426 78.515 271.397 78.507 271.379 78.502 C 271.371 78.499 271.364 78.499 271.361 78.497 L 271.523 77.206 L 287.614 77.206 L 287.891 78.456 Z M 137.506 78.499 C 137.503 78.501 137.495 78.502 137.487 78.504 C 137.469 78.509 137.442 78.517 137.405 78.529 C 137.331 78.55 137.223 78.586 137.091 78.637 C 136.825 78.74 136.474 78.899 136.129 79.132 C 135.439 79.594 134.838 80.284 134.834 81.332 C 134.834 81.332 134.834 81.337 134.835 81.342 C 134.84 81.366 134.844 81.388 134.856 81.443 C 134.874 81.524 134.894 81.642 134.903 81.786 C 135.51 85.767 136.71 92.826 139.019 103.329 L 140.079 108.043 L 140.079 108.044 C 142.782 120.095 145.331 129.209 146.798 134.148 L 146.972 134.657 C 147.42 135.801 148.117 136.643 148.741 137.221 C 149.097 137.55 149.426 137.789 149.662 137.945 C 149.78 138.022 149.875 138.078 149.937 138.114 C 149.969 138.132 149.992 138.145 150.006 138.153 C 150.013 138.157 150.018 138.158 150.021 138.16 L 149.728 139.401 L 133.404 139.401 L 133.106 138.163 C 133.107 138.162 133.11 138.16 133.113 138.16 C 133.118 138.157 133.126 138.152 133.138 138.145 C 133.163 138.132 133.201 138.112 133.249 138.086 C 133.345 138.032 133.484 137.953 133.652 137.848 C 133.99 137.64 134.435 137.337 134.879 136.966 C 135.81 136.188 136.539 135.257 136.539 134.337 C 136.539 131.819 135.973 128.302 135.055 123.891 C 134.138 119.491 132.884 114.262 131.528 108.334 C 129.002 97.3 126.818 89.355 125.374 84.404 L 111.291 134.437 L 111.287 134.452 L 111.282 134.468 C 111.245 134.578 111.239 134.771 111.239 135.032 C 111.239 135.965 111.92 136.722 112.8 137.299 C 113.222 137.576 113.649 137.784 113.973 137.922 C 114.134 137.991 114.268 138.042 114.359 138.075 C 114.405 138.091 114.44 138.104 114.463 138.111 L 114.492 138.121 L 114.297 139.401 L 101.686 139.401 L 101.372 138.17 L 101.373 138.168 C 101.375 138.168 101.378 138.168 101.381 138.166 L 101.55 138.07 C 101.667 138.003 101.836 137.903 102.043 137.775 C 102.457 137.519 103.018 137.153 103.602 136.714 C 104.188 136.273 104.787 135.766 105.285 135.23 C 105.788 134.689 106.156 134.155 106.327 133.658 L 106.328 133.652 C 108.106 128.706 111.274 119.746 114.75 107.772 C 116.763 100.801 118.501 94.973 119.737 90.434 C 120.354 88.167 120.843 86.232 121.177 84.648 C 121.514 83.053 121.685 81.852 121.685 81.034 C 121.685 80.407 121.177 79.786 120.446 79.252 C 120.104 79.002 119.758 78.804 119.495 78.67 C 119.364 78.601 119.257 78.548 119.183 78.515 C 119.146 78.497 119.116 78.486 119.098 78.478 C 119.089 78.475 119.082 78.471 119.079 78.47 L 119.075 78.468 L 119.325 77.206 L 137.35 77.206 L 137.506 78.499 Z M 252.267 78.499 L 252.265 78.499 C 252.262 78.501 252.255 78.502 252.247 78.504 C 252.231 78.509 252.203 78.517 252.165 78.529 C 252.093 78.55 251.983 78.586 251.852 78.637 C 251.586 78.74 251.235 78.899 250.89 79.132 C 250.199 79.594 249.599 80.284 249.594 81.332 C 249.594 81.332 249.594 81.337 249.596 81.342 C 249.601 81.366 249.604 81.388 249.617 81.443 C 249.635 81.524 249.655 81.642 249.663 81.786 L 249.665 81.786 C 250.272 85.767 251.47 92.826 253.78 103.329 L 254.839 108.043 L 254.839 108.044 C 257.542 120.095 260.091 129.209 261.559 134.148 L 261.733 134.657 C 262.18 135.801 262.878 136.643 263.501 137.221 C 263.857 137.55 264.187 137.789 264.423 137.945 C 264.541 138.022 264.636 138.078 264.698 138.114 C 264.729 138.132 264.752 138.145 264.767 138.153 C 264.774 138.157 264.779 138.158 264.782 138.16 L 264.488 139.401 L 248.165 139.401 L 247.867 138.163 C 247.868 138.162 247.871 138.16 247.873 138.16 C 247.88 138.157 247.888 138.152 247.899 138.145 C 247.924 138.132 247.962 138.112 248.009 138.086 C 248.106 138.032 248.245 137.953 248.412 137.848 C 248.75 137.64 249.196 137.337 249.639 136.966 C 250.57 136.188 251.299 135.257 251.299 134.337 C 251.299 131.819 250.734 128.302 249.816 123.891 C 248.899 119.491 247.645 114.262 246.288 108.334 C 243.763 97.3 241.579 89.355 240.135 84.404 L 226.053 134.437 L 226.048 134.452 L 226.043 134.468 C 226.005 134.578 225.999 134.771 225.999 135.032 C 225.999 135.965 226.681 136.722 227.561 137.299 C 227.982 137.576 228.41 137.784 228.733 137.922 C 228.895 137.991 229.028 138.042 229.12 138.075 C 229.166 138.091 229.2 138.104 229.223 138.111 L 229.253 138.121 L 229.058 139.401 L 216.446 139.401 L 216.133 138.17 L 216.134 138.168 C 216.136 138.168 216.139 138.168 216.143 138.166 L 216.31 138.07 C 216.428 138.003 216.597 137.903 216.803 137.775 C 217.218 137.519 217.779 137.153 218.362 136.714 C 218.949 136.273 219.548 135.766 220.046 135.23 C 220.549 134.689 220.917 134.155 221.087 133.658 L 221.089 133.652 C 222.866 128.706 226.035 119.746 229.51 107.772 C 231.523 100.801 233.261 94.973 234.497 90.434 C 235.115 88.167 235.604 86.232 235.938 84.648 C 236.274 83.053 236.447 81.852 236.447 81.034 C 236.445 80.407 235.938 79.786 235.207 79.252 C 234.864 79.002 234.519 78.804 234.256 78.67 C 234.125 78.601 234.017 78.548 233.943 78.515 C 233.907 78.497 233.878 78.486 233.858 78.478 C 233.85 78.475 233.843 78.471 233.84 78.47 L 233.837 78.468 L 234.086 77.206 L 252.111 77.206 L 252.267 78.499 Z M 517.54 77.052 C 526.495 77.052 533.747 84.389 533.747 93.336 C 533.747 98.606 531.224 103.293 527.283 106.243 C 534.98 107.777 540.787 114.548 540.787 122.656 C 540.787 131.919 533.295 139.327 524.039 139.327 L 496.886 139.327 L 496.571 138.094 L 496.576 138.093 C 496.581 138.089 496.586 138.086 496.594 138.083 C 496.61 138.073 496.635 138.06 496.668 138.04 C 496.731 138.003 496.827 137.947 496.94 137.876 C 497.169 137.732 497.472 137.53 497.779 137.291 C 498.087 137.052 498.381 136.786 498.6 136.522 C 498.827 136.247 498.925 136.032 498.943 135.886 C 499.327 131.806 499.866 122.933 499.866 108.344 C 499.866 101.074 499.827 95.103 499.702 90.462 C 499.576 85.811 499.364 82.532 499.025 80.612 C 499.002 80.483 498.892 80.276 498.641 80.002 C 498.404 79.742 498.09 79.481 497.766 79.243 C 497.443 79.007 497.123 78.806 496.886 78.663 C 496.768 78.591 496.669 78.535 496.602 78.497 C 496.568 78.479 496.543 78.463 496.525 78.455 L 496.502 78.443 L 496.809 77.207 L 502.448 77.207 L 517.535 77.052 L 517.54 77.052 Z M 381.985 78.327 C 381.931 78.381 381.866 78.427 381.831 78.453 C 381.787 78.484 381.735 78.522 381.679 78.56 C 381.564 78.638 381.426 78.73 381.262 78.845 C 380.939 79.071 380.534 79.368 380.134 79.719 C 379.302 80.448 378.628 81.286 378.536 82.099 C 378.075 87.022 377.69 96.206 377.69 108.266 C 377.69 121.309 378.075 129.792 378.461 134.414 C 378.584 135.391 379.341 136.296 380.198 137.004 C 380.613 137.345 381.021 137.619 381.328 137.806 C 381.479 137.898 381.603 137.97 381.689 138.017 C 381.731 138.04 381.766 138.057 381.787 138.068 C 381.797 138.073 381.805 138.078 381.808 138.081 C 381.812 138.081 381.813 138.081 381.813 138.083 L 381.521 139.326 L 365.275 139.326 L 365.09 138.039 L 365.091 138.039 C 365.095 138.039 365.101 138.037 365.109 138.034 C 365.127 138.029 365.155 138.019 365.193 138.006 C 365.267 137.98 365.38 137.937 365.516 137.878 C 365.79 137.758 366.16 137.57 366.541 137.301 C 367.301 136.765 368.057 135.943 368.259 134.722 C 368.642 130.251 369.105 121.614 369.105 108.266 C 369.105 96.609 368.46 84.909 368.073 81.573 C 368.039 81.565 368.003 81.552 367.96 81.542 C 367.721 81.488 367.4 81.439 367 81.393 C 366.203 81.301 365.152 81.234 363.944 81.186 C 361.531 81.089 358.544 81.07 355.837 81.07 C 352.971 81.07 349.945 81.07 347.52 81.147 C 346.309 81.186 345.258 81.243 344.46 81.329 C 344.061 81.37 343.737 81.419 343.492 81.47 C 343.443 81.481 343.397 81.496 343.356 81.506 C 342.705 86.004 342.335 96.519 342.335 108.266 C 342.335 121.31 342.797 129.797 343.183 134.42 C 343.31 135.401 344.053 136.304 344.888 137.007 C 345.292 137.35 345.691 137.622 345.989 137.809 C 346.137 137.901 346.26 137.971 346.343 138.019 C 346.384 138.042 346.417 138.06 346.437 138.071 C 346.448 138.076 346.456 138.08 346.461 138.083 C 346.463 138.083 346.463 138.085 346.465 138.086 L 346.166 139.326 L 329.92 139.326 L 329.648 138.073 C 329.648 138.073 329.651 138.071 329.653 138.07 C 329.658 138.068 329.666 138.065 329.676 138.06 C 329.695 138.05 329.728 138.035 329.769 138.014 C 329.854 137.971 329.977 137.906 330.126 137.819 C 330.428 137.644 330.83 137.386 331.235 137.052 C 332.066 136.366 332.808 135.448 332.902 134.358 L 332.902 134.355 C 333.133 131.824 333.751 122.25 333.751 110.277 L 333.751 108.269 C 333.674 96.132 333.287 86.944 332.902 82.091 L 332.902 82.086 C 332.805 80.716 332.046 79.827 331.266 79.263 C 330.876 78.979 330.489 78.784 330.199 78.661 C 330.054 78.599 329.936 78.556 329.856 78.53 C 329.817 78.515 329.787 78.506 329.767 78.501 C 329.759 78.497 329.753 78.496 329.749 78.494 L 329.92 77.206 L 383.105 77.206 L 381.985 78.327 Z M 271.984 138.429 L 271.993 138.426 C 272 138.422 272.003 138.417 272.01 138.414 C 272.002 138.419 271.993 138.424 271.984 138.429 Z M 321.238 137.383 C 321.259 137.403 321.282 137.421 321.303 137.439 C 321.172 137.322 321.039 137.198 320.91 137.068 L 321.238 137.383 Z M 343.817 136.901 C 343.914 137.002 344.014 137.099 344.114 137.194 C 344.014 137.099 343.915 137.002 343.819 136.901 L 343.817 136.901 Z M 368.146 136.645 L 368.28 136.453 C 368.296 136.427 368.311 136.399 368.328 136.373 C 368.27 136.466 368.21 136.558 368.146 136.645 Z M 189.58 135.707 L 189.729 135.673 C 189.898 135.629 190.063 135.578 190.229 135.53 C 190.014 135.593 189.798 135.652 189.58 135.707 Z M 181.342 80.068 C 179.838 80.068 178.335 80.219 176.828 80.519 L 176.827 80.517 C 167.9 82.473 161.205 90.144 159.626 98.024 C 159.248 99.993 159.02 102.274 159.02 104.71 C 159.02 107.446 159.324 110.261 159.857 112.928 L 160.059 113.8 C 161.153 118.187 163.469 122.915 165.184 125.63 L 165.544 126.173 C 169.394 131.732 176.622 135.696 184.204 135.696 C 185.704 135.696 187.204 135.545 188.704 135.245 C 197.944 133.217 204.714 125.319 205.99 116.912 L 205.993 116.892 C 206.293 115.244 206.447 112.89 206.447 110.433 C 206.447 107.997 206.218 105.336 205.765 103.065 C 204.696 98.026 202.639 92.942 199.854 89.327 C 195.634 83.903 188.701 80.068 181.342 80.068 Z M 24.096 109.854 C 20.906 109.854 16.75 110.126 13.226 110.354 C 13.241 122.645 13.726 130.697 14.034 134.965 C 18.009 135.26 22.575 135.542 25.798 135.542 C 32.263 135.542 37.752 129.243 37.752 122.661 C 37.752 116.087 32.652 110.223 26.155 109.931 L 26.155 109.93 C 25.832 109.928 25.494 109.912 25.162 109.892 C 24.814 109.874 24.463 109.854 24.096 109.854 Z M 513.596 109.695 C 512.597 109.695 511.599 109.715 510.622 109.734 C 509.881 109.749 509.153 109.759 508.451 109.766 C 508.468 122.42 508.955 130.62 509.329 134.886 C 513.316 135.188 517.878 135.539 521.099 135.539 C 527.565 135.539 533.054 129.24 533.054 122.656 C 533.054 116.084 527.88 110.144 521.385 109.849 C 519.301 109.772 516.448 109.695 513.596 109.695 Z M 274.98 135.145 C 275.018 135.022 275.054 134.898 275.08 134.768 L 275.082 134.757 C 275.056 134.891 275.018 135.019 274.98 135.145 Z M 377.846 134.722 C 377.849 134.745 377.857 134.766 377.862 134.789 C 377.856 134.757 377.848 134.724 377.841 134.689 L 377.846 134.722 Z M 333.651 133.229 L 333.659 133.135 C 333.674 132.937 333.687 132.724 333.704 132.497 C 333.686 132.76 333.669 133.004 333.651 133.229 Z M 399.469 128.886 C 399.478 129.042 399.488 129.194 399.496 129.345 C 399.483 129.128 399.471 128.907 399.46 128.683 L 399.469 128.886 Z M 165.4 127.096 C 165.446 127.156 165.494 127.217 165.541 127.278 C 165.485 127.205 165.428 127.133 165.374 127.06 L 165.4 127.096 Z M 38.289 124.373 C 38.268 124.522 38.245 124.671 38.22 124.819 C 38.269 124.528 38.312 124.238 38.342 123.946 L 38.289 124.373 Z M 37.714 118.402 L 37.682 118.295 C 37.659 118.228 37.632 118.163 37.608 118.095 C 37.645 118.197 37.68 118.299 37.714 118.402 Z M 513.519 80.994 C 512.181 80.994 510.781 81.055 509.412 81.122 C 509.099 85.445 508.545 94.124 508.455 105.754 L 514.757 105.754 C 520.988 105.754 526.247 99.69 526.247 93.336 C 526.247 86.998 521.309 81.298 515.134 80.994 L 513.519 80.994 Z M 527.531 105.215 L 527.906 104.893 C 527.923 104.877 527.939 104.861 527.957 104.844 C 527.818 104.97 527.675 105.093 527.531 105.215 Z M 528.075 104.738 C 528.141 104.679 528.206 104.62 528.268 104.559 C 528.321 104.51 528.372 104.459 528.424 104.408 C 528.309 104.52 528.193 104.629 528.075 104.738 Z M 529.29 103.493 C 529.162 103.641 529.031 103.785 528.896 103.928 C 528.918 103.905 528.941 103.883 528.962 103.861 C 529.073 103.739 529.183 103.618 529.29 103.493 Z M 369.647 99.292 L 369.521 95.07 C 369.519 95.016 369.516 94.962 369.513 94.908 C 369.564 96.316 369.61 97.783 369.647 99.292 Z M 500.246 87.206 C 500.366 90.008 500.438 93.468 500.477 97.577 L 500.427 93.683 C 500.386 91.232 500.327 89.072 500.246 87.204 L 500.246 87.206 Z M 522.657 83.604 L 522.658 83.604 C 522.522 83.478 522.383 83.355 522.244 83.235 C 522.383 83.355 522.521 83.478 522.657 83.604 Z M 458.711 82.283 C 458.697 82.447 458.688 82.617 458.675 82.791 C 458.696 82.493 458.717 82.206 458.738 81.932 L 458.711 82.283 Z M 63.584 82.283 C 63.573 82.435 63.564 82.593 63.552 82.755 C 63.573 82.468 63.593 82.194 63.613 81.932 L 63.584 82.283 Z M 134.233 81.676 C 134.232 81.668 134.233 81.66 134.232 81.653 L 134.217 81.586 C 134.224 81.614 134.228 81.645 134.233 81.676 Z M 248.994 81.676 C 248.993 81.668 248.994 81.66 248.993 81.653 L 248.978 81.586 C 248.985 81.614 248.988 81.645 248.994 81.676 Z M 478.436 80.891 C 478.41 80.881 478.383 80.875 478.357 80.865 C 478.383 80.875 478.41 80.883 478.436 80.891 Z M 343.332 80.835 C 343.204 80.863 343.094 80.893 343.001 80.924 L 343.356 80.83 L 343.332 80.835 Z M 344.774 80.64 C 344.391 80.673 344.05 80.712 343.761 80.757 L 344.242 80.694 C 344.409 80.675 344.586 80.657 344.774 80.64 Z M 516.358 80.461 C 516.757 80.525 517.15 80.609 517.537 80.714 L 516.953 80.573 C 516.757 80.53 516.558 80.493 516.358 80.461 Z M 499.671 80.494 L 499.641 80.378 C 499.64 80.368 499.635 80.36 499.632 80.35 C 499.648 80.398 499.663 80.445 499.671 80.494 Z M 4.291 80.42 L 4.263 80.27 C 4.259 80.252 4.252 80.235 4.247 80.219 C 4.265 80.284 4.281 80.352 4.291 80.42 Z M 180.761 79.42 C 180.953 79.416 181.15 79.412 181.342 79.412 C 181.148 79.412 180.955 79.416 180.761 79.42 Z M 402.615 78.202 C 402.566 78.24 402.515 78.283 402.46 78.327 C 402.571 78.237 402.674 78.161 402.761 78.097 C 402.717 78.13 402.666 78.163 402.615 78.202 Z M 237.455 1.433 L 237.458 1.446 L 237.456 1.446 C 237.453 1.448 237.447 1.449 237.438 1.451 C 237.422 1.456 237.396 1.464 237.36 1.475 C 237.289 1.497 237.184 1.533 237.056 1.584 C 236.797 1.685 236.458 1.846 236.122 2.077 C 235.453 2.536 234.861 3.228 234.86 4.284 C 234.86 4.287 234.86 4.289 234.861 4.29 C 234.865 4.315 234.869 4.336 234.881 4.392 C 234.899 4.472 234.92 4.59 234.928 4.735 L 235.222 6.631 C 235.94 11.153 237.194 18.373 239.479 28.581 L 240.025 30.991 C 243.083 44.411 245.925 54.157 247.298 58.564 L 254.045 58.564 L 254.045 76.471 L 252.749 76.614 L 252.749 76.612 C 252.749 76.611 252.747 76.607 252.747 76.606 C 252.745 76.599 252.744 76.589 252.74 76.576 C 252.734 76.551 252.726 76.512 252.713 76.463 C 252.69 76.361 252.652 76.212 252.601 76.019 C 252.499 75.635 252.344 75.083 252.131 74.417 C 251.703 73.083 251.044 71.305 250.117 69.52 C 248.242 65.902 245.404 62.495 241.383 62.274 L 211.318 62.274 C 207.337 62.495 204.519 65.899 202.65 69.518 C 201.729 71.305 201.073 73.081 200.647 74.415 C 200.434 75.081 200.278 75.635 200.177 76.019 C 200.127 76.212 200.09 76.361 200.065 76.463 C 200.054 76.512 200.044 76.551 200.039 76.576 C 200.036 76.589 200.032 76.599 200.032 76.606 C 200.031 76.607 200.031 76.611 200.031 76.612 L 200.031 76.614 L 198.734 76.471 L 198.734 58.564 L 205.583 58.564 C 207.075 54.484 210.598 44.572 214.697 30.489 L 214.698 30.486 C 216.636 23.937 218.351 18.402 219.587 13.971 C 220.83 9.515 221.554 6.276 221.556 4.292 C 221.556 3.821 221.225 3.225 220.654 2.626 C 220.103 2.049 219.448 1.592 219.056 1.397 L 219.349 0.154 L 237.297 0.154 L 237.455 1.433 Z M 276.822 1.405 L 276.703 1.464 C 276.621 1.507 276.502 1.572 276.356 1.657 C 276.064 1.83 275.674 2.084 275.282 2.408 C 274.476 3.077 273.78 3.949 273.72 4.951 L 273.68 5.567 L 273.598 5.567 C 273.223 10.625 272.792 19.556 272.792 31.058 C 272.792 40.545 273.082 47.662 273.359 52.608 C 276.438 47.29 280.554 39.644 285.161 30.155 L 286.776 26.801 C 290.417 19.201 293.186 13.184 295.104 8.843 C 296.199 6.361 297.014 4.431 297.555 3.066 C 297.825 2.384 298.025 1.849 298.155 1.461 C 298.221 1.266 298.268 1.115 298.296 1.005 L 298.325 0.887 L 298.325 0.154 L 311.901 0.154 L 312.216 1.385 L 312.213 1.387 C 312.209 1.389 312.201 1.392 312.193 1.398 C 312.173 1.408 312.144 1.428 312.105 1.451 C 312.027 1.497 311.913 1.567 311.775 1.661 C 311.496 1.848 311.121 2.121 310.732 2.469 C 309.939 3.179 309.18 4.121 308.988 5.182 L 308.986 5.185 C 308.763 6.369 308.554 9.125 308.398 12.887 C 308.244 16.628 308.147 21.319 308.147 26.34 L 308.147 31.052 L 308.224 35.854 C 308.319 40.621 308.462 45.205 308.591 48.888 C 308.678 51.343 308.76 53.395 308.821 54.834 C 308.85 55.556 308.875 56.121 308.893 56.508 C 308.901 56.7 308.908 56.849 308.913 56.948 C 308.914 56.998 308.918 57.036 308.919 57.062 C 308.919 57.071 308.918 57.077 308.919 57.084 C 309.016 58.1 309.765 59.072 310.613 59.846 C 311.024 60.221 311.431 60.526 311.736 60.735 C 311.888 60.84 312.014 60.918 312.1 60.972 C 312.142 60.999 312.175 61.018 312.196 61.031 C 312.206 61.038 312.214 61.043 312.219 61.046 C 312.221 61.046 312.224 61.046 312.224 61.046 L 314.383 62.274 L 295.732 62.274 L 295.507 61.002 L 295.509 61 C 295.512 60.999 295.52 60.997 295.53 60.992 C 295.548 60.985 295.579 60.972 295.619 60.956 C 295.701 60.922 295.82 60.866 295.966 60.79 C 296.26 60.64 296.652 60.405 297.048 60.084 C 297.845 59.436 298.616 58.466 298.714 57.085 L 298.714 57.077 C 299.099 52.456 299.563 43.964 299.563 31.058 C 299.563 22.324 299.278 15.151 299.004 9.971 L 274.03 61.764 L 274.03 62.354 L 273.371 62.349 L 260.373 62.274 L 260.157 61 C 260.159 61 260.157 61 260.159 60.999 L 260.18 60.99 C 260.2 60.984 260.231 60.971 260.273 60.954 C 260.355 60.92 260.478 60.862 260.629 60.787 C 260.929 60.636 261.331 60.403 261.737 60.081 C 262.554 59.431 263.337 58.461 263.436 57.085 L 263.436 57.077 C 263.821 52.459 264.208 43.969 264.208 31.058 C 264.208 18.928 263.746 9.817 263.36 4.962 L 263.36 4.958 C 263.262 3.582 262.518 2.716 261.764 2.174 C 261.385 1.902 261.01 1.716 260.728 1.6 C 260.588 1.541 260.473 1.502 260.396 1.477 C 260.357 1.464 260.328 1.456 260.31 1.451 C 260.301 1.448 260.295 1.448 260.291 1.446 L 260.454 0.154 L 276.546 0.154 L 276.822 1.405 Z M 418.175 1.405 L 418.057 1.464 C 417.975 1.507 417.855 1.572 417.709 1.657 C 417.416 1.83 417.026 2.084 416.636 2.408 C 415.827 3.077 415.134 3.949 415.073 4.951 L 415.034 5.567 L 414.95 5.567 C 414.575 10.625 414.145 19.556 414.145 31.058 C 414.145 40.545 414.434 47.662 414.713 52.608 C 417.79 47.29 421.908 39.644 426.515 30.155 L 428.128 26.801 C 431.769 19.201 434.539 13.184 436.456 8.843 C 437.553 6.361 438.367 4.431 438.908 3.066 C 439.179 2.384 439.377 1.849 439.508 1.461 C 439.574 1.266 439.62 1.115 439.649 1.005 L 439.677 0.887 L 439.677 0.154 L 453.255 0.154 L 453.569 1.385 L 453.566 1.387 C 453.563 1.389 453.555 1.392 453.545 1.398 C 453.527 1.408 453.496 1.428 453.458 1.451 C 453.379 1.497 453.266 1.567 453.127 1.661 C 452.848 1.848 452.473 2.121 452.086 2.469 C 451.292 3.179 450.533 4.121 450.34 5.182 L 450.338 5.185 C 450.117 6.369 449.905 9.125 449.751 12.887 C 449.597 16.628 449.501 21.319 449.501 26.34 L 449.501 31.052 L 449.576 35.854 C 449.671 40.621 449.814 45.205 449.945 48.888 C 450.032 51.343 450.114 53.395 450.174 54.834 C 450.204 55.556 450.228 56.121 450.246 56.508 C 450.255 56.7 450.261 56.849 450.264 56.948 C 450.268 56.998 450.271 57.036 450.271 57.062 C 450.271 57.071 450.271 57.077 450.271 57.084 C 450.369 58.1 451.117 59.072 451.965 59.846 C 452.378 60.221 452.784 60.526 453.089 60.735 C 453.242 60.84 453.366 60.918 453.453 60.972 C 453.496 60.999 453.527 61.018 453.548 61.031 C 453.56 61.038 453.568 61.043 453.573 61.046 C 453.574 61.046 453.576 61.046 453.578 61.046 L 455.735 62.274 L 437.084 62.274 L 436.861 61.002 L 436.862 61 C 436.866 60.999 436.872 60.997 436.882 60.992 C 436.902 60.985 436.931 60.972 436.972 60.956 C 437.053 60.922 437.174 60.866 437.32 60.79 C 437.613 60.64 438.005 60.405 438.402 60.084 C 439.199 59.436 439.967 58.466 440.067 57.085 L 440.067 57.077 C 440.451 52.456 440.915 43.964 440.915 31.058 C 440.915 22.324 440.63 15.151 440.356 9.971 L 415.383 61.764 L 415.383 62.354 L 414.724 62.349 L 401.727 62.274 L 401.511 61 L 401.509 61 C 401.509 61 401.51 61 401.512 60.999 L 401.533 60.99 C 401.553 60.984 401.584 60.971 401.625 60.954 C 401.709 60.92 401.832 60.862 401.981 60.787 C 402.283 60.636 402.684 60.403 403.091 60.081 C 403.907 59.431 404.691 58.461 404.789 57.085 L 404.789 57.077 C 405.175 52.459 405.561 43.969 405.561 31.058 C 405.561 18.928 405.098 9.817 404.712 4.962 L 404.712 4.958 C 404.614 3.582 403.87 2.716 403.117 2.174 C 402.737 1.902 402.361 1.716 402.081 1.6 C 401.94 1.541 401.827 1.502 401.75 1.477 C 401.711 1.464 401.681 1.456 401.663 1.451 C 401.655 1.448 401.648 1.448 401.645 1.446 L 401.807 0.154 L 417.898 0.154 L 418.175 1.405 Z M 126.059 1.448 C 126.056 1.449 126.048 1.451 126.04 1.453 C 126.022 1.457 125.995 1.466 125.958 1.477 C 125.884 1.498 125.776 1.534 125.644 1.585 C 125.378 1.689 125.027 1.848 124.682 2.08 C 123.992 2.543 123.391 3.233 123.387 4.28 C 123.387 4.28 123.387 4.285 123.388 4.29 C 123.393 4.315 123.397 4.336 123.409 4.392 C 123.427 4.472 123.447 4.59 123.456 4.735 C 124.063 8.715 125.263 15.774 127.572 26.278 L 128.632 30.991 L 128.632 30.993 C 131.335 43.044 133.884 52.157 135.351 57.097 L 135.525 57.605 C 135.973 58.749 136.67 59.592 137.294 60.169 C 137.65 60.499 137.979 60.738 138.215 60.894 C 138.333 60.971 138.428 61.026 138.49 61.062 C 138.522 61.081 138.545 61.094 138.559 61.102 C 138.566 61.105 138.571 61.107 138.574 61.108 L 138.281 62.349 L 121.957 62.349 L 121.659 61.112 C 121.66 61.11 121.663 61.108 121.666 61.108 C 121.671 61.105 121.68 61.1 121.691 61.094 C 121.716 61.081 121.754 61.061 121.802 61.035 C 121.898 60.981 122.037 60.902 122.205 60.797 C 122.543 60.589 122.988 60.285 123.432 59.915 C 124.363 59.136 125.092 58.205 125.092 57.285 C 125.092 54.767 124.527 51.251 123.608 46.839 C 122.691 42.439 121.437 37.211 120.081 31.283 C 117.555 20.248 115.372 12.304 113.927 7.353 L 99.845 57.385 L 99.84 57.4 L 99.835 57.416 C 99.798 57.526 99.792 57.72 99.792 57.98 C 99.792 58.913 100.473 59.671 101.353 60.248 C 101.775 60.525 102.202 60.733 102.526 60.871 C 102.687 60.94 102.82 60.99 102.912 61.023 C 102.958 61.04 102.993 61.053 103.016 61.059 L 103.045 61.069 L 102.85 62.349 L 90.239 62.349 L 89.925 61.118 L 89.926 61.117 C 89.928 61.117 89.931 61.117 89.935 61.115 L 90.103 61.018 C 90.22 60.951 90.389 60.851 90.596 60.723 C 91.01 60.467 91.571 60.102 92.155 59.662 C 92.741 59.221 93.34 58.715 93.838 58.179 C 94.341 57.638 94.71 57.103 94.88 56.607 L 94.882 56.6 C 96.659 51.654 99.827 42.695 103.303 30.721 C 105.316 23.75 107.054 17.922 108.29 13.382 C 108.907 11.115 109.396 9.181 109.731 7.597 C 110.067 6.002 110.238 4.8 110.238 3.982 C 110.238 3.356 109.73 2.735 108.999 2.2 C 108.657 1.951 108.311 1.753 108.048 1.618 C 107.918 1.549 107.81 1.497 107.736 1.464 C 107.699 1.446 107.669 1.434 107.651 1.426 C 107.642 1.423 107.635 1.42 107.632 1.418 L 107.629 1.416 L 107.878 0.154 L 125.903 0.154 L 126.059 1.448 Z M 66.096 0 C 75.05 0 82.303 7.338 82.303 16.284 C 82.303 21.555 79.779 26.242 75.838 29.191 C 83.535 30.726 89.342 37.496 89.342 45.605 C 89.342 54.867 81.849 62.276 72.594 62.276 L 45.44 62.276 L 45.127 61.043 L 45.131 61.041 C 45.135 61.038 45.141 61.035 45.149 61.031 C 45.165 61.022 45.191 61.008 45.223 60.989 C 45.287 60.951 45.381 60.895 45.495 60.825 C 45.724 60.681 46.028 60.479 46.334 60.24 C 46.642 60 46.936 59.735 47.155 59.471 C 47.382 59.195 47.48 58.98 47.498 58.835 C 47.882 54.754 48.421 45.882 48.421 31.293 C 48.421 24.022 48.382 18.051 48.256 13.41 C 48.131 8.759 47.919 5.48 47.581 3.561 C 47.557 3.431 47.447 3.225 47.197 2.951 C 46.958 2.69 46.646 2.43 46.321 2.192 C 45.999 1.956 45.679 1.754 45.44 1.612 C 45.322 1.539 45.224 1.484 45.157 1.446 C 45.123 1.428 45.097 1.412 45.08 1.403 L 45.058 1.392 L 45.364 0.156 L 51.004 0.156 L 66.09 0 L 66.096 0 Z M 480.862 0 C 489.816 0 497.068 7.338 497.068 16.284 C 497.068 25.152 489.894 32.408 480.944 32.411 L 480.946 32.412 L 471.77 32.485 L 471.77 34.929 C 471.77 46.97 472.18 54.818 472.668 58.446 L 472.768 59.115 L 472.772 59.135 L 472.773 59.151 C 472.793 59.343 472.893 59.556 473.093 59.787 C 473.293 60.018 473.564 60.233 473.852 60.422 C 474.139 60.607 474.424 60.754 474.639 60.856 C 474.747 60.907 474.836 60.944 474.896 60.971 C 474.926 60.982 474.949 60.992 474.964 60.997 C 474.97 61 474.977 61.002 474.98 61.003 L 474.982 61.005 L 474.752 62.276 L 460.207 62.276 L 459.899 61.04 L 459.902 61.038 L 459.991 60.989 C 460.053 60.954 460.145 60.9 460.257 60.833 C 460.479 60.697 460.776 60.503 461.076 60.276 C 461.38 60.044 461.673 59.787 461.896 59.526 C 462.121 59.266 462.232 59.049 462.265 58.889 C 462.575 54.856 463.188 45.834 463.188 31.214 C 463.188 16.705 462.648 7.303 462.112 2.769 L 462.062 2.666 C 462.024 2.612 461.962 2.536 461.858 2.441 C 461.665 2.269 461.399 2.095 461.112 1.938 C 460.827 1.782 460.545 1.654 460.33 1.564 C 460.224 1.52 460.135 1.485 460.076 1.462 C 460.045 1.451 460.022 1.443 460.007 1.436 C 459.999 1.434 459.994 1.431 459.991 1.43 L 459.988 1.43 L 460.207 0.156 L 465.847 0.156 L 480.856 0 L 480.862 0 Z M 180.999 1.443 L 180.983 1.448 C 180.965 1.452 180.937 1.461 180.902 1.474 C 180.83 1.497 180.725 1.536 180.596 1.59 C 180.337 1.698 179.996 1.869 179.66 2.108 C 178.986 2.589 178.391 3.3 178.386 4.356 C 178.387 4.358 178.387 4.361 178.387 4.369 C 178.392 4.392 178.397 4.413 178.409 4.469 C 178.427 4.549 178.446 4.667 178.455 4.812 C 179.15 9.364 180.54 17.935 183.553 31.067 L 183.555 31.07 C 186.258 43.118 188.883 52.231 190.35 57.174 L 190.525 57.68 C 190.968 58.815 191.648 59.623 192.25 60.162 C 192.593 60.471 192.907 60.69 193.135 60.831 C 193.247 60.9 193.339 60.949 193.398 60.981 C 193.427 60.997 193.45 61.008 193.463 61.015 C 193.47 61.018 193.473 61.02 193.476 61.022 L 193.204 62.274 L 176.881 62.274 L 176.602 61.025 C 176.602 61.025 176.604 61.023 176.607 61.022 C 176.612 61.018 176.622 61.015 176.633 61.008 C 176.658 60.997 176.694 60.979 176.743 60.954 C 176.838 60.905 176.977 60.83 177.145 60.733 C 177.481 60.538 177.927 60.256 178.368 59.905 C 179.294 59.167 180.014 58.276 180.015 57.362 C 180.015 54.962 179.469 51.6 178.597 47.39 C 177.755 43.316 176.625 38.519 175.427 33.108 L 161.442 33.108 L 154.689 57.307 L 154.686 57.323 L 154.679 57.338 C 154.642 57.448 154.636 57.641 154.636 57.905 C 154.636 58.83 155.328 59.587 156.231 60.166 C 156.663 60.444 157.1 60.653 157.431 60.79 C 157.596 60.859 157.733 60.912 157.827 60.944 C 157.873 60.961 157.909 60.974 157.932 60.981 C 157.944 60.985 157.953 60.987 157.958 60.989 C 157.96 60.99 157.962 60.99 157.963 60.99 L 157.771 62.274 L 145.238 62.274 L 144.953 61.026 L 144.99 61.008 C 145.017 60.995 145.058 60.976 145.11 60.948 C 145.216 60.892 145.368 60.81 145.557 60.702 C 145.935 60.484 146.451 60.167 146.996 59.764 C 148.11 58.943 149.258 57.838 149.731 56.589 C 155.204 41.865 160.296 23.817 165.007 3.361 L 165.007 3.285 C 165.007 3.216 164.961 3.061 164.739 2.816 C 164.531 2.584 164.233 2.348 163.906 2.13 C 163.584 1.915 163.258 1.734 163.011 1.607 C 162.888 1.543 162.785 1.492 162.715 1.459 C 162.68 1.443 162.652 1.428 162.635 1.42 C 162.626 1.416 162.619 1.415 162.615 1.413 C 162.613 1.412 162.611 1.41 162.611 1.41 L 162.878 0.154 L 180.825 0.154 L 180.999 1.443 Z M 353.825 1.446 L 353.729 1.475 C 353.657 1.497 353.552 1.533 353.424 1.584 C 353.166 1.685 352.825 1.846 352.491 2.077 C 351.822 2.536 351.232 3.226 351.227 4.28 C 351.227 4.28 351.227 4.285 351.229 4.29 C 351.234 4.315 351.237 4.336 351.25 4.392 C 351.268 4.472 351.288 4.59 351.296 4.735 L 351.298 4.735 C 351.948 9.002 353.211 16.802 355.848 28.581 L 356.394 30.991 L 356.396 30.994 C 356.819 32.901 357.24 34.867 357.635 36.66 C 358.165 34.932 358.694 33.119 359.224 31.265 L 359.226 31.263 L 362.067 21.651 C 362.926 18.753 363.688 16.16 364.321 13.874 C 365.593 9.281 366.316 6.043 366.316 4.138 C 366.316 3.584 365.96 2.967 365.418 2.408 C 364.882 1.853 364.301 1.497 364.113 1.425 L 364.342 0.154 L 382.367 0.154 L 382.536 1.443 C 382.533 1.444 382.526 1.446 382.518 1.449 C 382.502 1.454 382.474 1.462 382.436 1.475 C 382.362 1.498 382.254 1.538 382.121 1.592 C 381.854 1.702 381.503 1.872 381.156 2.113 C 380.462 2.597 379.856 3.307 379.851 4.356 C 379.851 4.358 379.851 4.361 379.853 4.369 C 379.857 4.392 379.862 4.413 379.875 4.469 C 379.893 4.549 379.913 4.667 379.921 4.812 L 380.216 6.708 C 380.933 11.23 382.185 18.45 384.472 28.658 L 385.018 31.067 L 385.018 31.07 C 387.722 43.118 390.348 52.231 391.815 57.174 L 391.989 57.679 C 392.435 58.81 393.128 59.617 393.746 60.158 C 394.099 60.466 394.425 60.685 394.658 60.826 C 394.776 60.897 394.869 60.946 394.93 60.977 L 395.01 61.018 L 394.745 62.274 L 378.5 62.274 L 378.221 61.023 C 378.223 61.023 378.225 61.023 378.226 61.022 L 378.354 60.958 C 378.446 60.91 378.579 60.84 378.738 60.746 C 379.059 60.559 379.484 60.287 379.905 59.948 C 380.787 59.235 381.479 58.361 381.479 57.439 C 381.479 54.923 380.915 51.385 379.995 46.956 C 379.079 42.534 377.825 37.288 376.469 31.36 C 373.877 20.063 371.683 11.971 370.239 7.033 L 354.839 61.641 L 354.704 62.118 L 353.548 62.118 L 353.48 61.541 L 353.48 61.54 L 353.478 61.538 C 353.478 61.538 353.478 61.536 353.478 61.533 C 353.478 61.528 353.476 61.518 353.475 61.508 C 353.473 61.485 353.468 61.453 353.462 61.408 C 353.452 61.32 353.435 61.189 353.412 61.013 C 353.366 60.662 353.294 60.136 353.196 59.449 C 353.001 58.074 352.694 56.044 352.255 53.429 C 351.376 48.2 349.968 40.629 347.843 31.281 C 345.319 20.055 343.138 12.03 341.694 7.108 L 327.612 57.057 C 327.556 57.284 327.554 57.446 327.554 57.672 C 327.554 58.658 328.254 59.472 329.135 60.095 C 329.558 60.397 329.987 60.625 330.312 60.777 C 330.474 60.854 330.607 60.91 330.699 60.948 C 330.744 60.966 330.779 60.981 330.802 60.989 L 330.831 60.999 L 330.612 62.274 L 315.59 62.274 L 317.756 61.046 L 317.757 61.046 C 317.759 61.046 317.76 61.044 317.764 61.043 C 317.77 61.038 317.782 61.033 317.797 61.025 C 317.824 61.008 317.865 60.984 317.919 60.951 C 318.028 60.885 318.185 60.789 318.379 60.662 C 318.765 60.412 319.292 60.049 319.847 59.607 C 320.982 58.698 322.133 57.536 322.57 56.361 C 324.27 51.565 327.515 42.377 331.143 29.947 C 334.846 17.217 337.079 8.589 337.93 4.351 C 337.943 4.205 337.981 4.095 337.997 4.046 C 337.999 4.043 337.997 4.039 337.999 4.036 C 337.992 3.756 337.882 3.459 337.663 3.146 C 337.436 2.825 337.12 2.52 336.782 2.253 C 336.446 1.989 336.105 1.774 335.848 1.625 C 335.72 1.551 335.615 1.493 335.543 1.456 L 335.436 1.403 L 335.718 0.154 L 353.665 0.154 L 353.825 1.446 Z M 209.729 61.861 C 209.536 61.91 209.347 61.969 209.16 62.033 C 209.349 61.969 209.541 61.908 209.736 61.859 L 209.729 61.861 Z M 210.898 61.649 C 210.877 61.651 210.857 61.653 210.838 61.656 C 210.992 61.638 211.147 61.625 211.305 61.617 L 210.898 61.649 Z M 310.168 60.331 C 310.19 60.351 310.213 60.369 310.234 60.387 C 310.104 60.271 309.97 60.146 309.841 60.017 L 310.168 60.331 Z M 451.522 60.331 C 451.543 60.351 451.566 60.369 451.587 60.387 C 451.456 60.271 451.324 60.146 451.194 60.017 L 451.522 60.331 Z M 472.177 59.489 C 472.183 59.512 472.193 59.533 472.201 59.554 C 472.178 59.489 472.157 59.425 472.142 59.356 L 472.177 59.489 Z M 210.931 58.564 L 236.766 58.564 C 236.076 54.026 234.466 44.411 231.474 31.281 C 228.95 20.183 226.766 12.232 225.32 7.279 L 210.931 58.564 Z M 62.151 32.644 C 61.153 32.644 60.154 32.663 59.177 32.683 C 58.437 32.698 57.708 32.708 57.007 32.714 C 57.024 45.369 57.51 53.569 57.883 57.835 C 61.87 58.136 66.433 58.487 69.655 58.487 C 76.12 58.487 81.61 52.188 81.61 45.605 C 81.609 39.032 76.436 33.093 69.94 32.798 C 67.856 32.721 65.003 32.644 62.151 32.644 Z M 263.911 58.094 C 263.949 57.971 263.985 57.846 264.011 57.716 L 264.013 57.705 C 263.987 57.839 263.949 57.967 263.911 58.094 Z M 405.265 58.094 C 405.301 57.971 405.339 57.846 405.365 57.716 L 405.366 57.705 C 405.339 57.839 405.302 57.967 405.265 58.094 Z M 323.082 56.839 C 322.972 57.089 322.836 57.333 322.682 57.572 C 322.666 57.598 322.646 57.623 322.629 57.649 C 322.646 57.625 322.666 57.598 322.682 57.572 C 322.836 57.333 322.972 57.09 323.082 56.841 L 323.082 56.839 Z M 153.989 57.516 C 153.988 57.539 153.987 57.562 153.986 57.585 C 153.991 57.495 153.999 57.403 154.013 57.316 L 153.989 57.516 Z M 385.389 35.599 C 385.471 35.947 385.558 36.291 385.638 36.634 C 385.39 35.596 385.138 34.532 384.885 33.442 L 385.389 35.599 Z M 239.978 33.701 C 240.122 34.322 240.268 34.935 240.411 35.539 C 240.073 34.119 239.732 32.65 239.386 31.135 L 239.978 33.701 Z M 160.19 25.443 C 159.955 26.314 159.719 27.18 159.482 28.039 C 159.719 27.18 159.955 26.316 160.19 25.445 L 160.19 25.443 Z M 74.488 29.33 L 74.903 29.058 C 74.959 29.021 75.013 28.978 75.068 28.94 C 74.877 29.073 74.685 29.204 74.488 29.33 Z M 162.582 29.244 L 174.504 29.244 C 172.143 19.109 170.115 11.751 168.771 7.131 L 162.582 29.244 Z M 62.075 3.943 C 60.736 3.943 59.335 4.003 57.968 4.071 C 57.654 8.394 57.101 17.073 57.011 28.703 L 63.312 28.703 C 69.543 28.703 74.802 22.638 74.802 16.284 C 74.802 9.946 69.864 4.246 63.688 3.943 L 62.075 3.943 Z M 476.687 3.943 C 475.406 3.943 474.026 3.944 472.734 3.995 C 472.421 8.325 471.867 17.066 471.777 28.625 L 478.077 28.625 C 484.31 28.625 489.567 22.558 489.567 16.284 C 489.567 9.946 484.629 4.246 478.455 3.943 L 476.687 3.943 Z M 76.086 28.163 L 76.461 27.842 C 76.478 27.825 76.495 27.809 76.512 27.793 C 76.372 27.919 76.231 28.042 76.086 28.163 Z M 483.843 27.589 C 483.67 27.696 483.495 27.798 483.318 27.896 L 483.32 27.898 C 483.603 27.742 483.877 27.57 484.147 27.391 C 484.046 27.458 483.946 27.525 483.843 27.589 Z M 76.631 27.686 C 76.695 27.627 76.761 27.568 76.824 27.507 C 76.877 27.458 76.928 27.407 76.98 27.357 C 76.865 27.468 76.749 27.578 76.631 27.686 Z M 77.846 26.442 C 77.717 26.589 77.586 26.734 77.452 26.876 C 77.473 26.853 77.496 26.832 77.517 26.809 C 77.629 26.688 77.738 26.566 77.846 26.442 Z M 229.035 18.384 C 229.661 20.825 230.332 23.525 231.035 26.489 L 230.007 22.242 C 229.673 20.889 229.348 19.604 229.035 18.384 Z M 48.801 10.154 C 48.922 12.956 48.993 16.417 49.033 20.525 L 48.982 16.632 C 48.94 14.181 48.881 12.02 48.801 10.153 L 48.801 10.154 Z M 488.746 22.212 C 488.653 22.396 488.554 22.576 488.452 22.755 C 488.657 22.397 488.844 22.03 489.016 21.656 L 488.746 22.212 Z M 366.908 5.256 C 366.918 5.153 366.929 5.051 366.937 4.953 L 366.937 4.939 C 366.929 5.043 366.918 5.148 366.908 5.256 Z M 177.786 4.702 C 177.784 4.695 177.786 4.685 177.784 4.679 L 177.771 4.612 C 177.776 4.639 177.781 4.671 177.786 4.702 Z M 379.251 4.702 C 379.249 4.695 379.251 4.685 379.249 4.679 L 379.234 4.612 C 379.241 4.639 379.244 4.671 379.251 4.702 Z M 122.787 4.625 C 122.785 4.617 122.786 4.608 122.785 4.602 L 122.77 4.535 C 122.777 4.562 122.781 4.594 122.787 4.625 Z M 350.627 4.625 C 350.625 4.617 350.627 4.608 350.625 4.602 L 350.611 4.535 C 350.617 4.562 350.622 4.594 350.627 4.625 Z M 234.256 4.613 C 234.255 4.608 234.256 4.605 234.256 4.602 L 234.242 4.535 C 234.246 4.559 234.25 4.585 234.256 4.613 Z M 450.196 3.725 C 450.274 3.585 450.358 3.454 450.448 3.325 L 450.446 3.325 C 450.358 3.453 450.274 3.587 450.196 3.725 Z M 64.913 3.41 C 65.312 3.474 65.705 3.557 66.091 3.662 L 65.509 3.521 C 65.312 3.479 65.113 3.441 64.913 3.41 Z M 48.226 3.443 L 48.197 3.326 C 48.194 3.316 48.189 3.308 48.186 3.298 C 48.203 3.346 48.217 3.394 48.226 3.443 Z M 165.654 3.171 L 165.631 3.054 C 165.625 3.031 165.616 3.007 165.608 2.984 C 165.63 3.046 165.646 3.108 165.654 3.171 Z M 336.184 1.062 C 336.182 1.061 336.179 1.059 336.177 1.057 L 335.718 0.81 C 335.731 0.816 335.915 0.905 336.184 1.062 Z M 163.329 1.033 C 163.323 1.03 163.318 1.026 163.312 1.023 L 162.878 0.81 C 162.89 0.816 163.068 0.897 163.329 1.033 Z" fill="currentColor" fill-rule="nonzero"></path>
</svg>